<?xml version="1.0" standalone="no"?>
<!DOCTYPE svg PUBLIC "-//W3C//DTD SVG 20010904//EN"
 "http://www.w3.org/TR/2001/REC-SVG-20010904/DTD/svg10.dtd">
<svg version="1.0" xmlns="http://www.w3.org/2000/svg"
 width="736.000000pt" height="1103.000000pt" viewBox="0 0 736.000000 1103.000000"
 preserveAspectRatio="xMidYMid meet">

<g transform="translate(0.000000,1103.000000) scale(0.100000,-0.100000)"
fill="#000000" stroke="none">
<path d="M0 10951 l0 -80 41 2 c44 2 99 39 99 67 0 8 7 23 14 33 8 10 12 27 9
37 -5 18 -14 20 -84 20 l-79 0 0 -79z"/>
<path d="M304 11009 c-10 -12 -35 -28 -54 -36 -36 -16 -81 -48 -81 -57 2 -21
-1 -25 -14 -20 -8 4 -17 -1 -21 -10 -3 -9 -12 -16 -19 -16 -8 0 -17 -10 -20
-22 -10 -33 -65 -87 -81 -81 -11 4 -14 -15 -14 -101 0 -58 2 -106 5 -106 2 0
21 11 41 25 20 14 42 25 48 25 25 0 87 76 93 114 3 21 15 44 29 54 12 9 50 37
84 61 33 24 66 52 73 61 7 9 36 32 65 50 46 28 72 55 72 74 0 3 -42 6 -93 6
-83 0 -96 -2 -113 -21z"/>
<path d="M727 10990 c-14 -29 -17 -51 -12 -80 6 -36 3 -43 -24 -71 -21 -21
-37 -29 -50 -24 -24 7 -64 -30 -86 -82 -9 -21 -23 -51 -31 -66 -18 -36 -18
-58 0 -51 15 6 56 -40 56 -62 0 -11 -52 -111 -117 -224 -11 -19 -23 -48 -27
-65 -4 -16 -18 -51 -31 -76 -15 -29 -28 -79 -34 -129 -6 -46 -15 -88 -19 -94
-5 -6 -22 -44 -38 -85 -29 -75 -44 -95 -144 -186 -63 -57 -92 -91 -138 -157
l-32 -47 0 -203 c1 -181 2 -200 15 -177 8 14 28 32 45 39 54 22 146 -7 157
-51 7 -26 40 -33 69 -14 14 9 58 61 99 116 60 80 75 108 75 135 0 27 8 42 32
65 18 16 40 29 48 28 28 -2 33 1 21 15 -11 13 -11 56 -1 66 3 3 12 25 20 50
18 53 45 70 115 70 44 0 53 4 75 31 19 22 34 30 59 31 18 1 36 -4 40 -11 5 -8
16 -4 36 13 28 24 28 26 11 45 -29 32 -14 68 32 80 20 6 44 11 52 11 20 0 57
36 145 140 115 136 346 358 379 366 42 9 63 -19 40 -55 -15 -24 -65 -75 -125
-127 -13 -11 -42 -43 -64 -70 -47 -58 -54 -64 -173 -173 -50 -46 -94 -93 -98
-105 -15 -47 -63 -103 -106 -121 -68 -30 -68 -29 -48 -93 l18 -57 49 -5 c93
-10 156 -77 156 -166 0 -47 -31 -95 -74 -114 -31 -13 -97 2 -140 33 -39 28
-67 127 -50 170 23 57 23 72 2 91 -26 24 -26 32 -1 79 17 31 18 38 6 43 -16 6
-66 -17 -85 -40 -8 -9 -22 -16 -32 -16 -15 0 -17 -7 -12 -53 5 -47 2 -56 -23
-86 -27 -32 -99 -71 -132 -71 -8 0 -24 8 -34 17 -13 12 -22 13 -29 6 -8 -8 -4
-22 15 -49 41 -60 35 -88 -30 -153 -31 -31 -69 -74 -84 -96 -26 -36 -52 -64
-140 -149 -17 -16 -30 -34 -30 -42 0 -25 -75 -123 -103 -135 -26 -11 -35 -9
-83 17 -58 31 -62 38 -39 71 8 11 19 33 25 48 10 26 6 31 -45 81 l-55 54 0
-273 c1 -232 3 -269 14 -254 19 25 78 33 94 14 7 -8 18 -40 24 -71 l12 -56
-32 -32 c-24 -25 -40 -32 -72 -33 l-40 0 0 -137 c0 -134 1 -138 26 -163 22
-22 25 -31 19 -68 -4 -24 -15 -48 -26 -56 -18 -13 -19 -37 -19 -830 l0 -816
52 -15 c65 -19 98 -61 98 -126 0 -50 28 -84 70 -84 39 0 68 33 76 86 7 49 6
50 -81 119 -16 12 -27 31 -28 50 -2 35 3 35 80 12 l52 -16 37 30 c24 19 48 29
70 29 37 0 42 -13 19 -44 -8 -11 -15 -30 -15 -43 0 -12 -8 -27 -18 -32 -14 -7
-18 -19 -15 -48 2 -31 12 -47 53 -85 41 -39 50 -52 50 -81 0 -31 -5 -38 -45
-62 -42 -24 -48 -25 -81 -13 -49 17 -80 -2 -122 -77 -44 -79 -68 -103 -109
-111 -46 -9 -77 1 -112 37 l-31 31 0 -1659 0 -1659 107 -110 c140 -143 321
-303 350 -310 13 -4 23 -10 23 -16 0 -5 35 -43 78 -85 71 -71 156 -139 332
-268 64 -47 109 -82 249 -196 55 -45 122 -90 211 -143 25 -15 92 -60 150 -101
58 -40 143 -92 190 -115 78 -38 130 -74 130 -90 0 -4 -43 -7 -95 -8 l-95 -1
-6 27 c-9 37 -20 49 -52 57 -15 3 -82 33 -150 66 -99 49 -128 59 -153 54 -16
-4 -35 -2 -42 3 -7 6 -38 18 -71 27 -53 16 -68 25 -104 69 -7 9 -24 16 -37 16
-13 0 -46 8 -72 19 -26 10 -68 22 -93 26 -25 4 -54 12 -65 17 -24 13 -65 57
-65 72 0 46 -48 -93 -51 -149 -2 -31 40 -129 77 -180 33 -46 56 -102 50 -122
-3 -10 -6 -47 -7 -83 -2 -76 -9 -87 -58 -96 -20 -4 -45 -13 -57 -21 -11 -7
-24 -10 -27 -6 -4 3 -8 -2 -8 -13 -2 -39 -8 -76 -12 -81 -5 -4 -47 64 -47 76
0 15 -96 50 -145 52 -78 3 -90 1 -127 -25 -57 -38 -100 -41 -161 -12 -29 14
-73 39 -100 56 l-47 29 0 -352 c1 -280 3 -356 14 -370 10 -12 11 -28 6 -52 -4
-19 -5 -35 -2 -35 3 0 1 -5 -6 -12 -7 -7 -12 -40 -12 -80 l0 -68 433 0 433 0
17 30 c10 17 13 30 8 30 -6 0 -11 6 -11 13 0 7 -13 33 -28 58 -30 46 -44 85
-47 131 -3 34 3 28 74 -76 44 -65 52 -82 43 -96 -13 -21 -6 -30 23 -30 12 0
30 -7 41 -15 19 -14 19 -14 -3 -15 -12 0 -25 -5 -28 -11 -11 -16 3 -23 19 -10
9 8 16 8 20 2 5 -7 265 -10 768 -11 l762 0 -21 22 c-28 31 -83 132 -83 154 0
25 46 82 83 101 21 11 56 16 103 16 58 -1 78 -5 110 -26 54 -34 77 -57 92 -90
17 -40 15 -65 -9 -85 -32 -26 -60 -55 -70 -74 -9 -17 107 -18 2311 -18 l2320
0 0 350 0 349 -34 7 c-19 3 -39 3 -44 0 -6 -3 -23 0 -39 8 -15 8 -41 19 -56
25 -15 6 -30 19 -34 28 -4 10 -11 21 -16 24 -5 4 -4 15 3 28 6 12 10 31 8 43
-2 12 3 23 10 25 6 3 12 0 12 -7 0 -6 4 -8 10 -5 5 3 39 8 76 11 110 9 104
-11 104 365 l0 321 -41 42 c-81 80 -168 246 -130 246 5 0 11 -6 14 -12 3 -10
11 -10 33 -3 22 8 28 16 26 33 -2 15 2 22 12 22 9 0 16 6 16 14 0 19 27 39 41
30 9 -5 8 -10 -2 -18 -8 -6 -21 -25 -28 -43 -7 -17 -21 -39 -32 -49 -10 -9
-19 -20 -19 -24 0 -14 44 -19 58 -8 10 9 16 8 22 -3 6 -8 6 -15 0 -17 -14 -5
-2 -22 16 -22 12 0 14 24 13 143 l-1 143 -29 -4 c-17 -3 -29 0 -29 7 0 6 13
11 29 11 l29 0 2 389 1 388 -76 6 c-164 14 -249 94 -436 412 -39 65 -81 142
-94 170 -21 47 -36 64 -93 104 -12 8 -27 29 -33 45 -7 17 -31 63 -54 101 -57
95 -71 133 -56 148 23 23 66 -9 159 -118 102 -121 126 -163 117 -205 -5 -23
-1 -32 23 -51 16 -13 51 -60 77 -104 97 -161 242 -365 287 -402 14 -12 128
-43 161 -43 16 0 17 27 17 438 l0 437 -32 0 c-29 0 -34 4 -51 50 -16 42 -18
68 -14 160 6 136 18 165 64 165 l33 0 0 190 c0 187 0 190 -20 178 -24 -15 -34
-38 -17 -38 7 -1 1 -7 -13 -15 -21 -11 -26 -11 -33 0 -13 24 -45 2 -79 -55
-26 -42 -47 -63 -95 -91 -35 -20 -85 -57 -112 -82 -37 -35 -58 -47 -81 -47
-39 0 -38 6 8 29 37 19 52 42 82 124 5 15 16 27 22 26 7 -1 20 -1 28 0 12 1
12 3 2 10 -11 6 -7 13 16 29 23 17 32 19 42 9 10 -9 11 -9 6 0 -4 7 4 19 19
29 23 15 24 18 9 28 -15 11 -15 15 -1 43 15 29 15 32 -3 48 -11 10 -20 31 -20
46 0 30 43 89 65 89 23 0 45 -30 45 -60 0 -35 20 -48 85 -56 l45 -7 0 523 0
522 -31 39 c-16 21 -33 53 -36 72 -6 42 20 107 47 114 19 5 20 13 20 177 -1
134 -4 175 -15 190 -19 25 -19 55 0 62 13 5 15 65 15 456 l0 450 -22 -5 c-40
-11 -127 68 -128 115 0 19 -9 31 -35 47 -19 11 -41 32 -47 47 -11 24 -10 29
15 50 16 13 34 24 41 24 8 0 19 7 26 15 19 23 56 18 74 -10 16 -24 18 -25 46
-10 30 15 30 16 30 104 0 88 0 88 -35 120 -19 17 -35 37 -35 45 0 7 -9 21 -19
30 -11 10 -36 52 -55 93 -20 42 -50 91 -66 110 -17 18 -30 43 -30 53 0 11 -20
47 -45 81 -51 69 -57 99 -22 99 25 0 57 28 57 48 0 18 -18 14 -43 -8 -13 -13
-27 -18 -37 -13 -8 4 -50 9 -92 11 -75 3 -78 5 -78 28 0 16 6 24 16 24 25 0
11 70 -20 96 -27 24 -46 56 -46 78 0 21 -114 188 -139 203 -11 7 -30 32 -41
55 -28 58 -67 125 -114 192 -31 45 -36 59 -26 71 15 18 5 33 -28 46 l-25 10
21 15 c14 10 22 25 21 42 -1 15 -3 20 -5 12 -3 -9 -14 -21 -25 -29 -19 -11
-27 -9 -68 16 -25 16 -52 42 -60 58 -7 17 -31 56 -52 87 -22 32 -39 64 -39 71
0 8 -13 26 -30 40 -16 15 -30 33 -30 41 0 7 -14 30 -30 51 -17 21 -39 57 -49
79 -10 23 -34 61 -52 86 -45 60 -69 115 -69 156 0 40 -24 56 -43 30 -24 -32
-97 13 -97 60 0 16 -16 42 -45 72 -25 25 -45 52 -45 59 0 19 -76 179 -89 187
-12 8 -16 66 -3 66 4 0 33 -15 66 -34 76 -43 168 -121 197 -168 13 -21 41 -50
62 -65 62 -44 77 -61 77 -88 0 -13 21 -54 48 -90 44 -62 83 -123 132 -205 11
-19 49 -73 85 -120 36 -47 86 -116 111 -154 26 -38 61 -82 79 -97 18 -16 46
-54 63 -86 17 -32 47 -73 66 -92 l36 -35 22 21 c42 39 85 31 113 -21 16 -29
17 -38 5 -65 -7 -19 -22 -34 -36 -37 -13 -3 -24 -10 -24 -16 0 -41 206 -328
235 -328 11 0 16 8 61 101 54 109 131 130 212 56 17 -16 22 -31 22 -69 0 -57
-17 -87 -68 -120 -50 -33 -87 -41 -129 -27 -19 6 -37 9 -40 6 -2 -3 13 -30 35
-59 25 -35 46 -78 56 -118 9 -35 23 -71 30 -80 8 -8 23 -34 35 -58 19 -37 127
-198 153 -227 4 -5 8 243 8 568 -1 335 -5 577 -10 577 -5 0 -14 -9 -20 -21
-14 -25 -68 -49 -112 -49 -109 0 -217 171 -162 256 21 32 8 64 -35 90 -39 23
-45 44 -31 103 14 58 54 101 123 131 77 34 163 8 208 -62 24 -39 21 -108 -5
-137 -23 -25 -20 -54 7 -79 13 -12 26 -22 30 -22 4 0 7 364 7 810 0 808 0 809
-21 851 -18 34 -26 40 -46 36 -13 -2 -26 0 -29 5 -3 4 -9 6 -14 3 -5 -3 -11
-1 -15 5 -10 16 -1138 14 -1133 -2 5 -14 24 -78 57 -193 11 -38 25 -99 32
-135 6 -36 18 -79 25 -97 8 -17 14 -35 14 -40 0 -6 9 -20 20 -33 25 -28 26
-49 3 -57 -10 -3 -27 -14 -38 -23 -49 -42 -91 -26 -83 30 4 24 -4 56 -23 103
-16 38 -35 99 -42 136 -8 37 -22 79 -30 92 -15 22 -36 101 -51 192 l-7 37
-444 0 c-328 0 -445 -3 -445 -11 0 -7 24 -35 54 -63 30 -28 70 -76 89 -106 19
-30 51 -70 72 -87 29 -26 35 -37 29 -55 -8 -27 -56 -97 -66 -98 -13 0 -58 62
-58 81 0 11 -7 19 -17 19 -43 0 -133 97 -133 143 0 9 -18 33 -40 53 -22 20
-40 45 -40 55 0 11 -4 19 -8 19 -5 0 -14 11 -20 24 l-11 25 -327 0 c-266 1
-329 -2 -338 -13 -6 -8 -28 -17 -48 -20 -30 -5 -40 -3 -56 15 l-20 21 -7 -31
c-4 -17 -13 -31 -21 -31 -17 0 -19 31 -2 48 9 9 -1 12 -47 12 -62 -1 -63 -3
-8 -36 17 -11 17 -13 2 -45 -24 -51 -68 -99 -90 -99 -14 0 -19 -7 -19 -30 0
-16 -4 -30 -10 -30 -5 0 -10 -18 -10 -39 0 -37 -15 -64 -41 -73 -9 -3 -8 -10
1 -25 12 -19 9 -26 -29 -69 -24 -27 -52 -54 -64 -61 -13 -6 -75 -12 -142 -13
-158 -3 -152 -4 -171 25 -15 24 -14 27 30 92 89 132 193 226 222 202 6 -5 15
-38 19 -74 7 -67 29 -96 67 -87 16 3 16 6 -4 33 l-22 30 29 23 c25 20 29 29
26 68 -2 33 2 48 18 62 11 10 24 16 28 13 20 -12 33 13 39 71 6 53 5 62 -10
62 -9 0 -16 -5 -16 -11 0 -5 -4 -8 -9 -4 -5 3 -12 1 -16 -5 -10 -16 -98 -51
-107 -42 -5 5 1 17 12 27 11 10 20 22 20 27 0 4 -244 8 -543 8 l-543 0 0 -32
c-1 -39 -49 -122 -82 -139 -20 -11 -25 -10 -45 12 -12 13 -28 38 -36 54 -7 17
-17 38 -22 47 -5 10 -9 27 -9 38 0 19 -6 20 -147 20 -113 -1 -143 -3 -128 -12
11 -6 30 -21 43 -34 15 -16 34 -24 55 -24 27 0 35 -5 43 -29 10 -25 7 -34 -23
-80 -20 -30 -44 -53 -59 -57 -58 -15 -115 27 -136 100 -21 75 -20 76 -133 -59
-22 -26 -50 -63 -62 -83 -11 -19 -34 -47 -50 -61 -33 -32 -65 -71 -58 -71 7 0
-94 -148 -107 -156 -5 -4 -23 3 -39 15 -22 17 -37 20 -63 15 -29 -5 -38 -2
-59 23 -13 15 -45 51 -70 80 -24 28 -53 65 -63 82 -23 39 -58 53 -139 56 -53
1 -75 -3 -110 -22 -24 -12 -58 -23 -75 -23 -17 0 -40 -9 -52 -20 -14 -13 -36
-20 -62 -20 l-41 0 27 26 c16 16 44 30 70 35 24 4 61 11 83 15 24 4 49 18 62
33 28 32 28 37 3 51 -11 6 -20 18 -20 26 0 9 -9 27 -20 41 -12 16 -20 41 -20
64 0 29 -7 44 -27 63 -26 24 -28 25 -222 25 l-196 1 -18 -40z m2743 -2 c0 -17
-28 -38 -49 -38 -28 0 -28 34 1 54 22 15 48 7 48 -16z m-15 -97 c8 -14 -16
-62 -29 -58 -13 4 -20 33 -12 53 6 16 32 19 41 5z m2100 -83 c14 -6 25 -19 25
-28 0 -9 9 -25 20 -35 26 -23 12 -40 -33 -40 -29 0 -32 -3 -32 -30 0 -39 -11
-55 -39 -55 -12 0 -31 -6 -42 -14 -10 -8 -23 -11 -29 -6 -5 5 -23 10 -40 12
-30 3 -30 4 -29 61 2 67 23 98 89 128 47 22 74 23 110 7z m954 -18 c23 -24 35
-29 58 -24 25 5 34 0 61 -30 18 -20 32 -46 32 -57 0 -11 10 -23 23 -28 34 -13
57 -44 64 -86 3 -20 17 -49 30 -64 32 -34 47 -61 34 -61 -6 0 -18 -14 -26 -31
-20 -38 -97 -75 -177 -84 -47 -6 -59 -4 -64 8 -9 25 46 107 98 144 26 19 48
38 48 42 0 10 -40 46 -66 59 -11 6 -56 14 -100 17 -90 8 -170 30 -177 50 -6
13 -5 19 8 79 8 36 65 91 99 94 16 1 35 -9 55 -28z m-2039 -75 c-24 -26 -40
-32 -40 -15 0 8 45 38 59 40 3 0 -6 -11 -19 -25z m-3582 -62 c11 -21 5 -72
-10 -90 -21 -26 -108 -11 -108 18 0 14 79 89 94 89 8 0 19 -8 24 -17z m6362
-76 c0 -23 -8 -41 -25 -57 -14 -13 -25 -35 -25 -48 0 -24 2 -24 45 -19 59 9
95 -5 95 -36 0 -39 -31 -57 -107 -64 l-69 -6 -66 51 c-55 41 -77 52 -119 56
-65 8 -76 16 -21 16 59 0 86 13 139 67 48 50 79 68 125 71 26 2 28 -1 28 -31z
m-2993 -13 c3 -22 0 -25 -19 -22 -29 4 -38 44 -11 50 23 5 26 3 30 -28z m1706
25 c44 -12 97 -56 127 -105 l22 -34 -35 -33 c-23 -21 -38 -46 -42 -70 -5 -23
-16 -42 -28 -49 -26 -13 -240 -3 -245 12 -2 5 -12 10 -22 10 -33 0 -43 26 -36
88 12 105 14 114 31 132 22 24 108 53 175 59 8 0 32 -4 53 -10z m-4551 -54
c21 -14 41 -25 46 -25 12 0 92 -61 92 -70 0 -28 -31 -36 -129 -34 l-100 2 -70
47 c-82 55 -93 66 -82 84 24 38 183 35 243 -4z m2877 -67 c18 -13 27 -15 37
-7 17 14 36 2 32 -20 -2 -10 2 -24 9 -32 18 -23 -1 -47 -25 -32 -14 8 -29 8
-59 0 -36 -9 -44 -8 -72 12 -24 17 -31 30 -31 55 0 17 5 37 11 43 15 15 67 5
98 -19z m2607 -33 c-24 -18 -31 -19 -44 -2 -8 9 -2 13 26 14 35 2 36 2 18 -12z
m-3676 -66 c0 -21 -20 -38 -61 -49 -26 -8 -37 -6 -51 7 -22 20 -22 25 0 51 26
30 83 43 99 23 7 -9 13 -23 13 -32z m-1540 -19 c0 -15 -40 -32 -58 -25 -15 6
-15 8 2 21 23 16 56 19 56 4z m2764 -81 c15 -27 19 -60 23 -208 2 -97 6 -226
8 -288 3 -67 0 -115 -6 -118 -6 -4 -7 -42 -3 -98 5 -66 2 -120 -10 -190 -9
-53 -14 -103 -10 -109 4 -6 9 -58 10 -114 1 -56 7 -119 13 -139 9 -33 8 -38
-10 -42 -15 -4 -19 -14 -19 -49 0 -23 5 -55 10 -69 14 -37 -1 -59 -50 -75 -53
-17 -57 -26 -30 -55 28 -30 63 -183 55 -236 -6 -36 -6 -36 33 -42 21 -4 54
-17 73 -30 19 -12 60 -35 91 -50 32 -16 67 -42 79 -58 11 -16 34 -36 49 -44
31 -16 55 -50 45 -65 -3 -5 -30 3 -61 17 -30 14 -58 23 -61 19 -8 -8 47 -71
77 -87 34 -19 110 -93 110 -107 0 -7 4 -12 10 -12 13 0 59 -48 71 -74 18 -40
44 -79 52 -75 4 2 20 -21 36 -51 39 -77 163 -200 209 -207 21 -4 46 -18 64
-37 31 -33 98 -131 98 -143 0 -5 21 -21 46 -38 25 -16 62 -50 82 -75 20 -25
40 -46 44 -48 4 -2 4 -10 1 -18 -6 -16 18 -57 56 -95 30 -29 71 -85 71 -95 0
-4 22 -33 49 -64 27 -31 64 -79 82 -106 39 -58 186 -251 209 -274 3 -3 27 -34
55 -70 27 -36 53 -67 58 -68 4 -2 17 -23 28 -45 25 -49 77 -107 96 -107 8 0
17 -8 21 -17 22 -52 48 -83 70 -83 60 0 111 -120 83 -194 -15 -37 -39 -36
-111 3 -140 75 -198 101 -270 117 -41 10 -83 24 -92 32 -13 10 -27 12 -55 7
-21 -5 -44 -7 -51 -6 -14 2 -120 67 -162 99 -14 10 -63 37 -110 59 -78 38
-123 73 -191 149 -14 16 -61 55 -105 87 -86 63 -144 115 -275 252 -48 50 -105
107 -128 128 -23 21 -48 51 -56 66 -8 16 -30 38 -49 49 -19 11 -42 33 -52 49
-10 15 -24 34 -33 41 -13 11 -13 17 2 60 27 76 20 172 -14 172 -11 0 -59 -48
-59 -60 0 -5 -4 -10 -10 -10 -5 0 -10 -7 -10 -15 0 -19 -80 -21 -98 -3 -8 8
-12 8 -12 1 0 -6 6 -13 14 -16 17 -7 16 -21 -7 -64 -25 -47 -64 -68 -145 -80
-41 -6 -76 -14 -79 -17 -4 -3 -5 -26 -5 -51 1 -25 -2 -45 -7 -45 -5 0 -13 -10
-17 -22 -4 -13 -10 -25 -13 -28 -4 -3 -15 -27 -25 -53 -10 -27 -24 -51 -32
-54 -8 -3 -14 -12 -14 -20 0 -8 -4 -11 -10 -8 -5 3 -10 2 -10 -4 0 -6 -25 -29
-56 -52 -48 -35 -60 -40 -90 -34 -74 13 -142 105 -149 198 -2 29 -4 53 -5 55
0 2 -12 -10 -27 -26 -32 -33 -71 -46 -90 -30 -9 7 -17 7 -27 -1 -10 -8 -22 -7
-49 4 -23 9 -38 11 -42 5 -23 -37 -101 27 -111 91 -4 21 -9 38 -13 38 -3 -1
-15 2 -27 6 -16 5 -23 21 -33 79 -7 40 -10 83 -6 95 5 18 2 21 -24 21 -16 0
-41 4 -55 10 -32 12 -34 -2 -4 -22 21 -14 21 -17 9 -56 -11 -32 -20 -42 -42
-47 -19 -4 -29 -13 -29 -25 0 -36 -63 -59 -92 -33 -28 25 -18 134 15 168 21
20 63 36 81 29 9 -3 16 4 20 21 4 15 29 55 56 90 28 34 50 66 50 71 0 14 73
159 83 166 18 12 34 -2 57 -51 22 -48 22 -50 5 -100 -9 -28 -28 -65 -41 -80
-35 -42 -32 -55 14 -47 140 25 162 19 167 -46 2 -28 7 -34 34 -39 17 -4 54
-18 81 -31 58 -29 65 -22 16 17 -47 37 -57 67 -54 156 l3 75 48 45 c31 30 46
51 42 61 -4 10 1 17 17 22 38 10 80 7 73 -5 -8 -11 25 -40 37 -33 5 3 31 -7
58 -22 44 -24 52 -33 62 -71 6 -24 14 -46 19 -49 5 -3 9 -19 9 -35 0 -18 4
-28 10 -24 13 8 13 -6 0 -39 -5 -14 -16 -26 -25 -26 -8 0 -15 -7 -15 -15 0
-14 -17 -33 -67 -75 -7 -5 -19 -7 -27 -4 -9 3 -16 1 -16 -5 0 -7 -23 -11 -60
-11 -33 0 -60 -2 -60 -5 0 -3 10 -20 22 -38 13 -18 24 -34 25 -36 1 -2 22 12
46 32 54 44 98 53 165 33 l52 -15 29 63 c16 34 43 74 60 89 39 33 37 56 -8 79
-31 16 -35 16 -46 1 -14 -19 -19 -12 -33 40 -11 40 -8 45 14 22 21 -21 29 -19
43 12 7 15 21 33 32 41 23 16 24 35 5 51 -10 8 -16 9 -21 1 -10 -16 -25 -1
-25 25 0 21 4 24 30 21 17 -2 39 -11 50 -21 17 -15 24 -16 46 -7 43 20 112 14
169 -15 l53 -26 30 22 c34 24 72 94 72 134 0 14 -9 50 -20 79 -21 56 -43 73
-122 98 -45 14 -127 -7 -178 -45 -19 -14 -38 -25 -42 -25 -13 0 -58 -51 -58
-64 0 -7 5 -17 11 -23 9 -9 8 -21 -5 -47 -19 -41 -31 -45 -39 -16 -7 27 -27
25 -27 -2 0 -19 -27 -104 -37 -117 -2 -3 -18 9 -36 25 -17 17 -49 43 -70 58
-20 15 -35 31 -32 36 3 4 1 19 -4 32 -8 19 -10 19 -10 4 -1 -14 -6 -17 -25
-12 -17 4 -28 1 -33 -8 -4 -8 -31 -21 -58 -28 -28 -7 -59 -21 -69 -30 -24 -22
-36 -23 -36 -2 0 14 -2 14 -22 0 -20 -14 -24 -14 -41 1 -14 14 -18 14 -15 3 4
-18 -38 -26 -57 -10 -8 6 -19 9 -25 5 -5 -3 -10 -1 -10 6 0 7 -11 29 -24 48
-37 55 -40 77 -17 100 12 12 21 26 21 32 0 5 4 8 9 5 10 -6 35 20 44 47 4 9
18 22 32 27 37 14 30 22 -12 14 -60 -11 -90 -30 -134 -89 -23 -31 -47 -54 -53
-52 -13 4 -27 66 -20 89 4 13 1 16 -9 12 -8 -3 -18 0 -22 7 -14 22 92 89 141
89 18 0 38 13 63 40 20 22 52 48 71 59 41 22 61 71 28 71 -20 0 -103 -24 -143
-42 -11 -5 -31 -25 -45 -44 -31 -46 -58 -56 -87 -35 -26 18 -30 53 -8 71 8 6
42 14 75 17 50 5 63 10 70 27 11 28 56 69 100 91 19 10 37 21 40 25 3 3 34 24
70 46 82 50 136 99 161 147 11 21 36 47 55 59 18 11 34 25 35 31 0 7 2 21 4
32 3 11 8 54 13 96 5 41 17 87 26 102 15 22 16 31 5 61 -10 27 -10 43 -1 74 7
22 12 51 12 65 0 14 5 48 12 76 8 37 16 51 29 51 19 0 29 -19 29 -59 0 -32 34
-81 55 -81 8 0 19 9 26 21 9 18 7 25 -14 48 -20 21 -24 35 -22 79 1 43 -2 52
-16 52 -10 0 -27 -11 -38 -25 l-20 -26 -25 38 c-26 37 -33 78 -18 99 4 6 32
27 64 48 58 38 65 47 79 106 16 71 38 146 50 177 7 18 10 35 6 39 -3 4 -26 -1
-50 -10 -23 -9 -45 -16 -49 -16 -3 0 -18 16 -32 35 -33 43 -36 82 -26 304 5
107 4 177 -3 200 -12 40 -10 70 5 89 15 17 29 15 61 -11 21 -16 30 -33 32 -61
2 -22 8 -42 13 -45 5 -3 13 -14 19 -25 8 -14 12 -1 17 60 12 125 29 196 51
204 14 5 23 0 35 -21 8 -15 23 -42 34 -60z m1116 51 c27 -27 40 -62 33 -89 -3
-11 2 -39 11 -61 17 -43 12 -64 -23 -100 -22 -23 -45 -31 -119 -40 -103 -13
-156 25 -168 121 -5 41 29 110 78 159 27 28 35 30 99 30 56 0 73 -4 89 -20z
m-3772 -9 c20 -10 49 -21 65 -25 42 -10 36 -48 -15 -96 -24 -22 -46 -40 -50
-40 -4 0 -5 -7 -2 -15 4 -8 1 -15 -5 -15 -6 0 -11 7 -11 14 0 11 -11 14 -41
13 -26 -1 -43 4 -49 13 -15 24 -12 76 8 117 27 60 40 64 100 34z m3456 -38 c3
-10 8 -35 12 -57 l7 -38 -41 7 c-43 7 -64 -7 -35 -24 10 -6 14 -11 9 -11 -5 0
-3 -7 4 -15 11 -13 10 -18 -6 -30 -26 -19 -37 -19 -68 6 -21 16 -26 29 -26 64
0 37 6 50 35 80 41 40 99 50 109 18z m-3618 -153 c7 -23 18 -36 32 -38 28 -4
48 -30 35 -43 -10 -10 -60 0 -103 21 -18 9 -35 63 -26 85 11 29 50 14 62 -25z
m4834 -106 c43 -29 51 -56 26 -90 -14 -19 -15 -19 -52 1 -46 24 -62 55 -46 90
14 31 23 31 72 -1z m-5768 -54 c47 -14 98 -71 98 -111 0 -39 -22 -80 -60 -113
-25 -20 -42 -26 -80 -26 -90 0 -141 37 -155 113 -9 48 -1 78 31 116 23 27 32
31 77 31 29 0 69 -5 89 -10z m6094 -52 c102 -94 137 -166 97 -199 -84 -69
-186 -36 -217 70 -10 35 -18 45 -37 48 -50 7 -88 40 -73 64 8 14 51 11 68 -6
19 -20 26 -19 26 3 0 10 7 28 16 40 25 36 66 29 120 -20z m-263 -173 c25 -10
37 -24 47 -55 10 -30 25 -49 52 -66 42 -27 98 -107 98 -141 0 -27 -71 -83
-105 -83 -12 0 -34 9 -49 21 -23 18 -26 28 -26 81 l0 60 -55 -7 c-60 -7 -57
-11 -70 78 -3 20 -8 53 -11 72 -12 66 27 79 119 40z m-5187 -64 c31 -26 64
-80 64 -105 0 -7 -9 -25 -21 -40 -17 -22 -28 -26 -72 -26 -101 0 -167 38 -167
95 0 32 37 75 84 96 47 21 68 17 112 -20z m2842 -77 c33 -9 31 -54 -3 -54 -14
0 -29 8 -35 19 -20 39 -11 48 38 35z m-294 -100 c27 -10 18 -40 -16 -57 -18
-9 -36 -13 -40 -11 -16 10 -8 43 14 58 26 19 22 18 42 10z m2964 -42 c39 -35
51 -82 27 -105 -56 -56 -144 40 -105 114 15 27 41 24 78 -9z m-3857 -62 c19
-11 26 -54 11 -77 -14 -22 -58 -26 -81 -7 -28 24 -27 38 6 69 31 28 36 29 64
15z m3964 -180 c21 -40 18 -70 -9 -104 -42 -51 -94 -17 -88 58 1 22 50 76 69
76 7 0 19 -13 28 -30z m-2917 -36 c35 -24 28 -61 -18 -106 -23 -21 -48 -38
-57 -38 -24 0 -92 -41 -108 -67 -8 -12 -40 -34 -70 -48 -34 -17 -70 -45 -96
-75 -43 -51 -83 -72 -118 -63 -43 11 -69 -4 -76 -47 -9 -52 -35 -83 -114 -136
-166 -112 -261 -189 -261 -213 0 -5 17 -23 39 -40 46 -37 71 -85 71 -139 0
-96 -120 -154 -208 -101 -45 29 -64 50 -94 111 -13 27 -30 48 -39 48 -9 0 -36
-16 -60 -35 -24 -19 -60 -37 -79 -40 -19 -3 -48 -8 -63 -10 -22 -4 -36 2 -58
24 -34 35 -37 65 -9 125 22 50 20 74 -11 118 -16 21 -24 51 -27 90 -4 55 -3
59 30 92 21 21 49 37 72 41 49 10 157 -19 190 -50 27 -25 48 -90 48 -146 -1
-24 5 -39 18 -47 14 -8 19 -8 23 2 3 7 19 16 36 19 21 5 35 15 41 32 5 14 31
39 58 57 88 59 160 122 184 159 27 43 86 88 142 109 29 11 46 25 58 50 23 45
42 62 108 97 30 16 74 41 97 55 23 15 81 48 130 72 49 25 109 61 133 80 52 40
58 42 88 20z m-472 -100 c11 -59 -42 -76 -58 -19 -6 23 -4 33 9 43 28 20 42
14 49 -24z m1231 -61 c26 -3 50 -14 64 -29 21 -22 21 -25 5 -48 -14 -22 -93
-56 -130 -56 -14 0 -56 79 -56 106 0 30 21 46 50 39 14 -4 44 -9 67 -12z
m-2827 -3 c16 0 50 -91 50 -134 0 -34 -5 -48 -20 -59 -25 -17 -103 -16 -124 2
-26 22 -16 109 14 131 4 3 15 20 24 38 12 23 22 32 32 28 9 -3 19 -6 24 -6z
m-1502 -43 c15 -42 15 -54 0 -54 -7 0 -19 -2 -26 -4 -7 -2 -20 8 -29 23 -16
25 -16 28 2 47 26 29 39 26 53 -12z m5230 1 c30 -33 36 -70 17 -107 -9 -17
-13 -36 -10 -42 12 -19 -6 -68 -28 -75 -13 -4 -23 -2 -25 5 -6 19 -55 61 -70
61 -22 0 -72 33 -72 47 0 7 4 13 9 13 5 0 7 10 4 21 -5 19 -3 21 23 15 41 -9
58 5 51 42 -7 34 0 40 49 41 20 1 38 -7 52 -21z m-363 -84 c107 -10 144 -45
94 -90 -18 -16 -36 -19 -130 -18 -82 1 -115 6 -134 18 -60 39 -4 113 75 100
14 -2 57 -7 95 -10z m1705 -18 c0 -11 -19 -15 -25 -6 -3 5 1 10 9 10 9 0 16
-2 16 -4z m-6550 -119 c30 -15 70 -82 70 -118 0 -30 -55 -79 -89 -79 -12 0
-21 -6 -21 -14 0 -8 -17 -35 -37 -60 -21 -25 -48 -58 -60 -73 -27 -35 -47 -26
-80 38 -13 24 -33 53 -43 64 -34 37 -26 66 31 103 27 18 52 40 55 50 27 84
105 124 174 89z m731 -28 c39 -39 8 -151 -46 -165 -13 -3 -30 -2 -37 2 -7 5
-15 9 -18 10 -29 6 -79 38 -89 57 -20 38 -10 58 39 74 25 9 54 22 65 29 28 20
62 17 86 -7z m5052 -101 c7 -20 -12 -48 -33 -48 -24 0 -31 11 -23 38 6 24 48
31 56 10z m368 -29 c5 -11 7 -24 4 -29 -3 -6 -1 -10 4 -10 15 0 14 -103 0
-117 -6 -6 -11 -30 -11 -52 1 -28 -6 -50 -21 -68 -13 -16 -31 -46 -42 -68 -28
-56 -45 -75 -68 -75 -19 0 -51 -30 -84 -78 -13 -18 -18 -20 -25 -10 -6 8 -7 0
-3 -22 4 -19 13 -41 20 -49 12 -12 18 -12 41 4 30 20 148 33 157 18 12 -19
-10 -114 -33 -145 -22 -30 -22 -32 -5 -45 11 -7 31 -13 45 -13 30 0 90 27 90
40 0 20 45 18 67 -2 13 -12 23 -24 23 -27 0 -4 -18 -14 -40 -23 -46 -20 -62
-46 -58 -91 3 -29 6 -32 42 -35 48 -4 75 24 76 76 0 39 15 71 42 91 12 8 17
19 13 29 -9 25 6 102 20 102 21 0 22 42 3 78 -22 40 -22 42 -3 42 8 0 15 5 15
10 0 6 17 10 39 10 43 0 71 -29 71 -75 0 -20 -5 -25 -24 -25 -27 0 -44 -16
-24 -22 19 -7 16 -109 -4 -137 -23 -30 -23 -52 0 -79 9 -11 28 -34 41 -51 14
-16 28 -28 31 -26 4 2 4 -9 2 -25 -4 -31 -27 -46 -46 -31 -15 13 -27 3 -46
-34 -8 -16 -28 -43 -44 -59 -20 -20 -30 -41 -31 -64 -2 -20 -14 -49 -28 -67
-14 -17 -31 -49 -39 -71 -8 -21 -27 -60 -43 -86 l-30 -47 -65 6 c-74 6 -128
25 -136 47 -3 8 6 41 20 72 37 81 32 145 -16 198 -15 17 -32 19 -168 18 -82
-1 -158 -6 -168 -11 -11 -6 -41 -7 -74 -2 -31 4 -65 6 -75 5 -48 -8 -127 42
-101 63 15 12 22 12 163 -12 101 -16 164 -16 199 0 21 10 36 24 36 35 0 21
-48 45 -110 55 -105 15 -167 44 -231 106 -73 72 -74 93 -8 97 36 2 48 8 56 25
9 19 5 26 -32 55 -25 19 -55 56 -71 86 -16 30 -40 61 -54 69 -14 8 -44 34 -68
56 -77 74 -36 122 54 62 25 -17 49 -31 53 -31 5 0 22 -7 37 -15 16 -8 39 -15
52 -15 32 0 82 -24 113 -53 32 -31 133 -57 151 -39 7 7 20 12 30 12 16 0 18
10 19 73 1 39 1 78 0 85 -3 18 48 34 91 29 21 -3 37 -2 36 1 -4 19 16 92 34
127 11 22 26 61 34 86 27 88 77 120 105 68z m-1376 -44 c33 -8 85 -15 115 -15
70 0 104 -17 108 -53 5 -45 -12 -57 -87 -57 -56 0 -73 -4 -101 -25 -20 -15
-47 -25 -66 -25 -28 0 -40 9 -79 56 -25 31 -48 67 -52 82 -12 51 48 65 162 37z
m-3594 -50 c5 4 9 -5 9 -19 0 -14 4 -26 9 -26 5 0 23 -23 40 -51 27 -43 36
-50 59 -47 21 2 35 17 63 63 20 33 37 62 37 65 -1 21 4 30 15 30 17 0 46 -120
36 -147 -4 -12 -24 -38 -44 -58 -37 -36 -37 -38 -31 -95 5 -44 3 -67 -9 -89
-8 -17 -15 -39 -15 -50 0 -11 -12 -33 -26 -50 -20 -24 -34 -31 -61 -31 -30 0
-45 10 -104 69 -38 38 -69 73 -69 79 0 5 -7 15 -15 22 -14 11 -14 15 2 32 18
20 22 64 10 110 -8 29 -43 46 -60 29 -17 -17 -42 -13 -61 8 -17 19 -44 18 -56
0 -3 -4 -30 -19 -60 -33 -52 -24 -55 -24 -82 -8 -51 30 -46 92 7 92 12 0 28 7
35 15 7 8 18 15 24 15 7 0 20 16 29 35 15 32 20 35 62 35 25 0 56 -7 70 -16
33 -22 115 -10 115 16 0 22 41 31 53 12 5 -7 12 -10 18 -7z m5223 -353 c-8 -2
-14 -9 -14 -15 0 -7 -4 -6 -10 3 -13 21 7 43 25 27 11 -10 11 -13 -1 -15z
m-1994 -24 c0 -4 -7 -8 -15 -8 -8 0 -15 4 -15 8 0 5 7 9 15 9 8 0 15 -4 15 -9z
m-2382 -25 c-4 -20 -45 -30 -60 -15 -16 16 1 32 33 32 24 0 30 -4 27 -17z
m3173 -15 c13 -23 18 -44 15 -68 -5 -42 28 -164 55 -202 11 -14 19 -30 19 -35
0 -5 32 -42 72 -81 l72 -72 -20 -27 c-12 -16 -32 -29 -45 -30 -36 -3 -79 54
-89 119 -8 57 -33 113 -55 125 -20 12 -55 100 -55 139 0 19 -7 51 -15 71 -24
58 -19 88 18 92 4 1 16 -14 28 -31z m-196 -71 c8 -25 6 -31 -14 -46 -25 -19
-53 -18 -71 4 -8 9 -4 21 16 44 31 38 55 37 69 -2z m-2126 11 c20 -7 47 -23
60 -35 19 -17 23 -27 17 -54 -3 -18 -17 -46 -29 -63 -13 -17 -26 -38 -30 -47
-6 -19 -105 -69 -135 -69 -25 0 -36 15 -52 65 -7 22 -20 49 -30 60 -9 11 -20
25 -24 32 -13 24 43 101 84 116 28 10 103 7 139 -5z m1781 -58 c26 -26 25 -40
-2 -40 -27 0 -58 28 -51 46 7 20 30 17 53 -6z m-557 -84 c15 -10 27 -26 27
-35 0 -9 5 -22 11 -28 15 -15 -25 -91 -56 -105 -14 -6 -42 -8 -69 -4 -38 6
-50 14 -75 48 -36 49 -34 77 10 124 27 28 33 30 77 24 26 -3 59 -14 75 -24z
m-2873 -28 c42 -31 42 -83 0 -128 -33 -35 -49 -35 -67 1 -16 29 -16 62 -2 112
12 43 27 46 69 15z m969 -7 c8 -14 6 -25 -8 -42 -10 -13 -21 -37 -25 -53 -11
-44 -27 -11 -19 39 10 71 32 94 52 56z m1651 -61 c0 -5 -4 -10 -10 -10 -5 0
-10 5 -10 10 0 6 5 10 10 10 6 0 10 -4 10 -10z m37 -36 c-3 -3 -12 -4 -19 -1
-8 3 -5 6 6 6 11 1 17 -2 13 -5z m1024 -34 c10 -6 19 -17 19 -25 0 -8 24 -30
54 -49 54 -35 76 -60 76 -90 0 -29 -61 6 -95 54 -17 23 -39 48 -50 54 -26 14
-35 27 -35 49 0 20 4 21 31 7z m-3196 -80 c16 -53 28 -129 35 -225 5 -61 13
-138 19 -170 6 -33 24 -139 41 -235 30 -171 41 -226 61 -303 9 -35 13 -38 36
-32 22 5 25 3 20 -14 -3 -12 -2 -21 1 -21 13 0 28 -68 20 -89 -11 -32 31 -28
60 6 l23 28 -30 14 c-17 8 -31 19 -31 25 0 15 31 46 46 46 8 0 21 11 30 26 11
16 24 24 38 22 18 -3 21 -9 19 -48 0 -25 -9 -74 -18 -110 -10 -36 -20 -104
-22 -152 -4 -74 -3 -88 10 -88 9 0 18 6 20 13 3 6 6 3 6 -8 1 -11 -15 -72 -36
-135 -29 -93 -36 -131 -36 -198 -1 -104 10 -117 54 -68 17 20 52 49 76 63 43
25 46 25 73 10 15 -10 33 -17 40 -17 24 0 37 -27 44 -88 6 -53 4 -70 -13 -105
-29 -59 -102 -107 -168 -109 -43 -2 -89 41 -104 95 -9 34 -13 38 -34 33 -22
-6 -27 0 -47 46 l-23 53 -5 -39 c-8 -61 -29 -67 -92 -25 -29 19 -65 41 -80 49
-54 26 -19 109 52 125 31 7 74 -14 84 -41 3 -8 10 -14 16 -14 17 0 11 35 -9
57 -11 12 -26 36 -34 54 -19 45 -60 85 -125 121 -28 17 -55 35 -60 42 -4 7
-27 24 -52 38 -58 33 -89 62 -125 116 -15 24 -44 57 -64 74 -45 40 -52 23 -23
-56 13 -38 18 -69 15 -100 -4 -30 -1 -52 8 -63 7 -10 9 -15 5 -11 -12 10 -35
-22 -36 -49 0 -13 -4 -23 -9 -23 -5 0 -12 -11 -15 -25 -4 -16 -11 -23 -18 -19
-7 5 -9 -1 -6 -18 4 -22 2 -24 -16 -20 -19 5 -19 4 -7 -11 7 -9 17 -15 21 -12
18 11 22 -19 5 -32 -11 -7 -15 -13 -11 -13 11 0 -16 -25 -35 -32 -10 -4 -24 8
-43 39 -28 43 -28 46 -17 113 16 98 14 148 -10 219 -18 58 -19 65 -4 87 8 13
33 36 55 50 37 25 40 30 40 74 0 35 4 47 15 47 8 0 15 -3 15 -7 0 -14 78 -89
110 -105 19 -10 49 -34 67 -54 29 -33 34 -35 54 -23 14 9 35 11 63 7 48 -8 65
-20 77 -53 9 -22 14 -24 51 -19 72 10 78 50 13 102 -47 39 -50 55 -10 55 13 0
27 5 30 10 4 6 -1 52 -9 103 -8 50 -29 175 -46 277 -18 102 -36 221 -41 265
-5 44 -18 110 -29 147 -11 36 -20 86 -20 111 0 25 -5 80 -11 123 -13 93 0 141
32 121 11 -7 21 -19 24 -27z m520 -32 c50 -59 53 -79 19 -132 -35 -54 -48 -61
-80 -39 -21 13 -29 14 -48 3 -52 -27 -58 10 -21 115 39 108 71 121 130 53z
m-1416 12 c48 -24 84 -91 79 -147 -3 -35 -7 -39 -68 -70 -76 -38 -107 -41
-144 -12 -76 60 -72 176 7 224 51 30 76 31 126 5z m1943 -201 c16 -19 16 -22
2 -45 -28 -42 -118 -27 -130 22 -11 41 24 66 74 53 20 -6 45 -19 54 -30z
m-1576 -35 l65 -65 -6 -64 c-5 -40 -14 -71 -26 -83 -26 -29 -90 -37 -128 -18
-16 9 -41 16 -56 16 -20 0 -25 -5 -25 -24 0 -29 -13 -39 -54 -41 -81 -4 -99
37 -27 58 25 8 45 19 44 25 -2 6 2 33 8 60 8 41 15 51 42 63 30 13 32 17 32
64 0 60 8 75 41 75 17 0 45 -20 90 -66z m2534 36 c0 -5 -4 -10 -10 -10 -5 0
-10 5 -10 10 0 6 5 10 10 10 6 0 10 -4 10 -10z m2830 -46 c17 -51 6 -81 -36
-99 -87 -36 -93 0 -19 122 23 37 38 31 55 -23z m-3276 24 c10 -38 7 -42 -14
-23 -23 21 -26 45 -6 45 7 0 16 -10 20 -22z m2670 -27 c13 -14 14 -21 5 -27
-7 -4 -17 0 -25 10 -9 13 -13 14 -17 4 -3 -7 -6 -3 -6 10 -1 27 20 29 43 3z
m-5892 -96 c42 -50 -44 -125 -143 -125 -44 0 -44 -2 -1 92 18 40 34 60 52 66
29 10 67 -3 92 -33z m748 -14 c44 -46 59 -100 33 -118 -9 -7 -36 -13 -60 -13
-40 0 -43 -2 -51 -32 -19 -73 -138 -114 -189 -66 -46 43 -19 112 57 142 22 9
55 33 73 53 76 88 84 90 137 34z m2926 12 c-10 -10 -19 5 -10 18 6 11 8 11 12
0 2 -7 1 -15 -2 -18z m1805 -44 c45 -48 35 -99 -18 -99 -31 0 -73 43 -73 74 0
23 31 56 53 56 5 0 22 -14 38 -31z m-2582 -98 c25 -70 26 -85 5 -77 -9 3 -33
6 -55 6 -35 0 -39 2 -39 26 0 36 39 104 60 104 4 0 17 -26 29 -59z m3784 -5
c9 -7 17 -21 17 -30 0 -30 -33 -14 -44 22 -8 25 1 28 27 8z m-4235 -148 c18
-18 14 -66 -7 -87 -47 -47 -141 -35 -141 16 0 39 10 50 55 67 50 18 78 19 93
4z m483 0 c40 -12 64 -30 89 -68 8 -13 24 -33 35 -44 11 -12 19 -25 17 -29 -1
-5 8 -5 20 -1 19 6 21 4 11 -7 -6 -8 -9 -32 -7 -54 2 -22 1 -47 -2 -56 -9 -32
-150 -47 -200 -22 -11 5 -40 11 -66 12 -83 4 -102 13 -105 49 -3 33 10 44 21
17 5 -13 8 -13 26 2 23 20 26 51 7 77 -16 22 -57 14 -57 -11 0 -9 -3 -14 -6
-10 -3 3 -3 15 1 26 5 16 15 21 41 21 19 0 34 -4 34 -8 0 -5 7 -17 16 -28 10
-12 9 -7 -3 16 -18 33 -23 35 -66 33 l-47 -1 18 24 c9 13 23 24 30 24 6 0 12
6 12 13 0 8 4 7 10 -3 6 -10 10 -11 10 -2 0 17 15 15 34 -4 14 -14 16 -14 16
0 0 14 43 45 64 46 5 0 26 -5 47 -12z m-2992 -19 c81 -13 113 -30 171 -90 37
-38 49 -59 53 -91 6 -45 -5 -68 -32 -68 -9 0 -44 -9 -76 -21 -109 -38 -229 -8
-283 71 -21 30 -23 43 -19 97 5 62 13 79 52 101 25 14 53 15 134 1z m2286 -23
c24 -24 25 -60 1 -69 -14 -6 -104 7 -112 16 -10 10 25 57 49 67 32 13 36 12
62 -14z m1861 10 c28 -28 11 -76 -28 -76 -10 0 -25 11 -33 24 -30 46 22 90 61
52z m-1452 -87 c2 -54 10 -89 29 -130 l26 -56 -43 -42 c-42 -41 -43 -42 -97
-35 -83 10 -129 58 -129 138 0 43 44 130 78 153 45 31 117 61 125 53 5 -4 10
-41 11 -81z m-1414 9 c0 -25 -3 -28 -14 -19 -14 12 -27 57 -18 66 11 11 32
-19 32 -47z m2614 40 c38 2 85 -36 86 -69 0 -9 6 -22 14 -28 23 -19 25 -91 4
-142 -17 -40 -24 -46 -64 -57 -59 -16 -76 -15 -121 6 -53 24 -64 41 -46 68 12
19 11 28 -6 74 l-20 52 35 54 c34 53 37 55 67 48 18 -4 41 -7 51 -6z m-2518
-36 c49 -36 114 -108 114 -126 0 -23 -65 -86 -88 -86 -12 0 -28 -9 -36 -21
-18 -26 -33 -18 -52 27 -16 37 -19 94 -5 94 5 0 2 18 -5 40 -12 36 -12 45 1
70 9 17 19 30 24 30 4 0 26 -13 47 -28z m-790 -5 c4 -4 16 -7 26 -7 10 0 18
-7 18 -15 0 -8 -4 -15 -9 -15 -6 0 -36 -24 -68 -53 -62 -57 -92 -77 -117 -77
-20 0 -56 35 -56 55 0 21 59 85 79 85 10 0 21 3 25 8 10 10 68 30 83 28 7 -1
16 -5 19 -9z m1554 -27 c0 -5 -4 -10 -10 -10 -5 0 -10 5 -10 10 0 6 5 10 10
10 6 0 10 -4 10 -10z m1372 -88 c84 -56 92 -65 95 -116 2 -41 -11 -70 -48
-107 -25 -25 -29 -24 -29 6 0 18 -7 28 -26 35 -37 15 -54 12 -54 -7 0 -12 -3
-14 -8 -7 -4 7 -15 8 -29 3 -26 -9 -32 -56 -11 -77 16 -16 -19 -17 -58 -2 -19
8 -30 8 -38 0 -7 -7 -6 -10 2 -10 8 0 10 -9 6 -26 -5 -21 -4 -25 6 -19 10 6
12 1 7 -23 -5 -24 -3 -32 7 -32 8 0 17 7 20 16 14 36 21 -2 21 -107 0 -105 -1
-110 -22 -115 -12 -3 -26 -3 -32 0 -5 4 -12 2 -15 -3 -3 -5 -18 -12 -33 -16
-27 -6 -106 -65 -129 -94 -7 -9 -18 -12 -29 -7 -17 6 -17 8 1 29 23 26 57 97
50 104 -8 8 -26 -7 -26 -22 0 -16 -38 -40 -48 -31 -3 3 0 17 7 30 7 13 10 33
7 44 -5 15 0 25 21 40 15 10 33 17 40 15 6 -2 14 1 18 6 3 6 0 11 -9 11 -12 0
-12 5 -3 30 9 23 8 38 -2 66 -7 20 -14 48 -16 62 -3 29 36 124 43 104 3 -9 9
-9 23 -1 11 5 24 7 29 4 11 -7 11 -2 14 92 1 51 6 69 31 105 36 50 87 80 124
71 15 -3 56 -26 93 -51z m1066 -38 c24 -17 28 -49 10 -89 -13 -29 -38 -32 -74
-9 -51 34 -51 84 -1 104 32 13 40 12 65 -6z m-276 -81 c20 -18 24 -48 8 -58
-5 -3 -10 -16 -10 -27 0 -29 -38 -68 -67 -68 -27 0 -60 30 -73 66 -14 35 -13
39 16 73 21 25 33 31 67 31 24 0 48 -7 59 -17z m-585 -35 c28 -31 73 -122 73
-150 0 -12 -9 -41 -21 -65 -23 -48 -85 -89 -119 -78 -10 3 -25 -1 -34 -10 -14
-14 -20 -14 -63 0 -68 22 -72 26 -81 76 -11 59 -3 80 39 94 23 8 45 27 68 61
18 27 37 48 43 46 5 -1 19 9 31 23 27 31 38 31 64 3z m-834 -48 c80 -39 110
-66 140 -127 14 -27 33 -55 41 -62 17 -15 22 -36 6 -26 -5 3 -10 0 -10 -7 0
-11 -2 -10 -9 0 -6 10 -10 8 -14 -8 -3 -13 0 -29 9 -37 16 -17 19 -43 4 -43
-7 0 -7 -6 0 -20 6 -11 7 -20 3 -20 -4 0 -1 -5 7 -10 12 -7 12 -12 2 -22 -11
-11 -19 -6 -46 26 -35 43 -56 42 -56 -2 0 -24 -19 -70 -20 -48 0 17 -29 -29
-30 -46 0 -10 -4 -18 -10 -18 -5 0 -7 -7 -4 -15 4 -9 -6 -22 -30 -36 -20 -11
-34 -25 -31 -29 4 -7 -24 -24 -34 -20 -2 1 -8 -4 -13 -12 -6 -8 -11 -9 -14 -3
-2 7 -27 9 -60 7 -39 -2 -63 2 -80 13 -14 9 -29 13 -34 10 -5 -3 -12 0 -15 6
-4 5 -13 8 -20 5 -7 -2 -18 6 -25 20 -8 13 -17 24 -22 24 -4 0 -8 11 -8 25 0
28 -22 68 -54 100 -14 14 -18 15 -14 4 3 -9 2 -22 -3 -30 -6 -10 -9 -4 -9 19
0 19 9 46 19 60 10 15 18 32 17 37 0 6 14 11 32 13 24 2 32 7 28 18 -3 8 -1
14 5 14 6 0 7 5 4 10 -3 6 -2 10 4 10 5 0 11 -5 13 -10 2 -6 22 -8 52 -4 44 6
47 8 31 21 -16 11 -17 13 -3 13 9 0 20 -4 23 -10 3 -5 20 -10 36 -10 18 0 28
4 24 10 -3 6 -2 10 4 10 5 0 11 -5 13 -10 2 -7 14 -7 36 -1 18 6 32 6 32 1 0
-5 7 -6 17 -3 10 4 14 2 9 -5 -3 -6 3 -13 14 -17 11 -3 34 -18 51 -32 23 -20
35 -24 51 -16 18 8 15 12 -36 46 -61 41 -130 71 -187 81 -43 8 -54 19 -63 62
-6 26 -2 37 19 58 14 14 29 26 33 26 4 0 18 12 31 26 30 31 53 28 144 -16z
m-1213 10 c13 -9 13 -11 0 -19 -9 -6 -19 -6 -27 1 -28 23 -5 39 27 18z m1825
0 c3 -5 -1 -10 -9 -10 -9 0 -16 5 -16 10 0 6 4 10 9 10 6 0 13 -4 16 -10z
m-3344 -20 c27 -15 26 -73 -2 -99 -17 -15 -26 -18 -40 -10 -11 5 -20 15 -21
22 0 7 -2 19 -3 27 -1 15 31 70 41 70 3 0 14 -5 25 -10z m2035 -31 c4 -8 9 -8
17 0 12 12 67 15 67 4 0 -5 -11 -21 -24 -37 -18 -23 -32 -30 -65 -32 -39 -2
-41 -1 -35 24 9 44 13 52 23 52 5 0 13 -5 17 -11z m267 -158 c-21 -20 -53 -46
-70 -58 l-33 -22 0 40 c0 43 31 99 54 99 7 0 28 11 47 26 l34 25 3 -37 c3 -33
-2 -42 -35 -73z m4393 54 c-3 -9 0 -15 9 -15 8 0 15 -6 15 -14 0 -16 -26 -46
-40 -46 -15 0 -23 60 -10 75 16 19 34 19 26 0z m-5740 -13 c32 -27 36 -71 11
-117 -18 -32 -29 -41 -54 -43 -41 -4 -68 11 -86 47 -41 83 59 171 129 113z
m3600 2 c41 -19 75 -64 70 -90 -7 -33 -38 -104 -46 -104 -4 0 -25 6 -46 14
-54 18 -65 12 -58 -33 8 -48 -13 -73 -53 -62 -22 6 -30 17 -40 51 -7 23 -19
51 -28 60 -23 26 -18 55 13 70 15 8 32 14 37 14 6 1 16 15 24 33 12 28 58 62
84 63 5 0 24 -7 43 -16z m1780 -101 c49 -52 69 -93 45 -93 -15 0 -134 83 -144
101 -6 9 -7 24 -4 33 12 32 49 17 103 -41z m-2175 -23 c29 -16 10 -78 -31
-100 -21 -11 -65 4 -74 25 -7 19 17 58 44 72 31 16 36 16 61 3z m-2063 -46 c9
-16 3 -55 -13 -99 -10 -26 -55 -64 -76 -65 -9 0 -24 9 -34 20 -15 17 -16 24
-5 50 14 34 88 110 107 110 7 0 16 -7 21 -16z m2904 -96 c32 -41 17 -74 -45
-97 -37 -14 -72 8 -88 57 -11 33 -10 37 12 55 32 26 96 18 121 -15z m-3550 0
c21 -38 36 -136 24 -153 -13 -17 -89 -45 -123 -45 -18 0 -28 9 -39 35 -18 45
-18 74 2 114 18 36 67 71 101 71 13 0 28 -10 35 -22z m1903 12 c3 -5 2 -10 -4
-10 -5 0 -13 5 -16 10 -3 6 -2 10 4 10 5 0 13 -4 16 -10z m1287 -9 c16 -8 30
-25 33 -42 4 -16 11 -31 16 -34 5 -4 9 -22 9 -41 0 -19 7 -49 16 -66 18 -35
13 -41 -47 -58 -41 -11 -94 2 -103 26 -3 8 -2 24 3 37 11 29 -2 62 -33 83 -44
28 -31 65 27 79 16 4 31 14 34 22 3 7 8 12 12 11 3 -2 18 -10 33 -17z m-1779
-3 c10 2 24 -2 32 -8 8 -7 18 -9 23 -6 5 3 9 -2 9 -10 0 -8 -6 -13 -13 -10 -8
3 -16 1 -19 -4 -10 -16 -73 -8 -78 9 -6 24 3 42 16 34 7 -4 20 -6 30 -5z m107
-28 c0 -5 -5 -10 -11 -10 -5 0 -7 5 -4 10 3 6 8 10 11 10 2 0 4 -4 4 -10z
m-666 -94 c49 -61 50 -66 24 -66 -34 0 -88 85 -80 125 5 29 5 29 14 5 5 -13
24 -42 42 -64z m4164 56 c17 -22 8 -72 -18 -93 -27 -23 -81 -11 -97 21 -16 34
-5 80 21 91 29 12 78 2 94 -19z m-1305 -22 c14 -11 35 -36 47 -54 25 -41 20
-73 -17 -108 -22 -20 -34 -23 -104 -22 l-80 1 8 -46 c11 -64 8 -138 -6 -155
-12 -15 -98 -46 -127 -46 -32 0 -123 61 -145 97 -22 35 -22 36 -5 110 21 89
37 99 131 88 106 -12 130 -11 130 5 0 9 13 37 28 63 52 88 90 106 140 67z
m-5140 -36 c4 -7 57 -62 116 -122 95 -95 108 -112 104 -135 -4 -22 -11 -27
-33 -27 -36 0 -121 91 -156 165 -13 28 -39 65 -59 83 -44 42 -47 67 -7 57 15
-3 31 -13 35 -21z m534 -1 c51 -34 120 -213 82 -213 -19 0 -8 -51 21 -96 37
-60 48 -125 26 -159 -29 -45 -72 -59 -169 -58 l-87 2 -16 -30 c-22 -43 -58
-57 -84 -34 -26 24 -26 69 1 106 18 25 19 34 10 61 -22 64 -15 77 84 162 l30
26 -28 21 c-38 29 -57 70 -57 122 0 55 21 83 75 102 44 16 74 13 112 -12z
m2768 6 c9 -28 -3 -89 -18 -94 -7 -2 -38 -11 -70 -21 -51 -15 -55 -18 -40 -30
17 -12 16 -13 -7 -14 -14 0 -36 -7 -48 -16 -22 -15 -47 -11 -37 7 4 5 -10 25
-31 44 -31 29 -35 39 -29 62 8 35 4 33 56 34 24 1 57 8 72 16 20 10 32 11 41
4 15 -12 76 4 76 20 0 18 29 8 35 -12z m-365 -16 c0 -5 -5 -15 -10 -23 -8 -12
-10 -11 -10 8 0 12 5 22 10 22 6 0 10 -3 10 -7z m-30 -28 c0 -14 -9 -30 -20
-37 -11 -7 -20 -18 -20 -25 0 -17 -22 -16 -45 1 -19 14 -19 15 8 40 54 50 77
57 77 21z m-100 -15 c-24 -16 -31 -11 -19 11 8 16 14 18 22 10 9 -9 8 -14 -3
-21z m-1427 -69 c18 -17 18 -19 -2 -52 -23 -37 -28 -118 -12 -162 11 -30 4
-64 -14 -71 -16 -6 -138 15 -145 24 -3 4 -15 12 -27 19 -21 10 -29 6 -90 -49
-94 -83 -115 -103 -141 -138 -21 -28 -26 -30 -53 -20 -40 14 -90 76 -87 107 2
18 20 34 68 63 36 21 95 70 131 108 36 39 70 70 76 70 5 0 36 19 69 42 121 88
183 104 227 59z m4877 -7 c15 -40 12 -51 -21 -72 -50 -32 -76 -16 -70 42 5 54
74 76 91 30z m-4734 -26 c3 -5 13 -6 22 -4 22 7 78 -27 84 -51 9 -36 -20 -88
-57 -103 -19 -8 -35 -17 -35 -21 0 -14 -35 -16 -60 -3 -14 7 -36 24 -50 39
-28 29 -29 79 -4 128 13 24 20 27 55 25 22 -1 43 -6 45 -10z m1274 -18 c0 -5
7 -10 15 -10 18 0 19 -12 3 -28 -13 -13 -14 -17 -17 -49 -1 -21 -75 -103 -91
-103 -7 0 -9 8 -5 20 8 27 -6 25 -40 -4 -56 -48 -70 -51 -102 -22 -15 14 -31
26 -35 26 -5 0 -8 7 -8 15 0 8 5 15 10 15 6 0 10 9 10 21 0 37 17 57 45 52 14
-3 25 -1 25 5 0 5 14 15 31 21 19 7 28 15 23 22 -5 8 1 10 20 7 14 -3 26 -2
26 3 0 4 10 10 23 12 42 8 67 7 67 -3z m172 -41 c27 -37 27 -38 2 -141 -7 -31
-39 -35 -62 -8 -12 13 -13 13 -9 0 2 -8 13 -19 25 -25 13 -6 21 -19 22 -35 3
-86 2 -111 -7 -165 -7 -39 -7 -67 -1 -81 7 -15 7 -28 0 -40 -9 -16 -11 -13
-17 19 -4 20 -12 40 -17 43 -17 10 -20 -3 -6 -26 10 -18 10 -24 1 -27 -7 -3
-13 -13 -13 -24 0 -13 -7 -19 -21 -19 -12 0 -23 -8 -26 -20 -7 -25 -23 -26
-23 -1 0 10 12 27 27 37 16 10 23 19 15 22 -6 2 -12 8 -12 13 0 4 7 5 17 2 10
-4 14 -2 9 5 -9 14 -71 9 -92 -8 -13 -12 -17 -11 -26 1 -8 12 -9 12 -5 -1 3
-10 15 -14 41 -13 20 1 36 0 36 -3 0 -11 -29 -34 -44 -34 -9 0 -16 -4 -16 -9
0 -8 -19 -18 -50 -26 -3 -1 -12 -4 -20 -8 -8 -3 -27 -8 -42 -11 -39 -9 -42
-36 -12 -96 21 -43 24 -57 15 -72 -6 -10 -11 -47 -11 -82 0 -51 -4 -67 -17
-75 -16 -9 -16 -13 -5 -31 11 -19 10 -28 -7 -63 -15 -31 -18 -43 -8 -49 8 -5
6 -13 -11 -28 -20 -19 -32 -58 -14 -46 4 2 16 -2 27 -10 10 -8 15 -14 9 -14
-5 0 -10 -20 -11 -45 -1 -26 3 -43 8 -40 5 4 9 2 9 -3 0 -5 -9 -12 -19 -15
-19 -5 -22 -21 -9 -43 4 -6 3 -25 -1 -42 -8 -26 -7 -30 7 -25 12 5 14 2 9 -11
-4 -10 -7 -22 -7 -27 0 -6 -28 -9 -70 -6 -38 2 -70 1 -70 -3 0 -12 28 -20 46
-13 10 4 17 -1 21 -15 6 -24 32 -37 47 -22 18 18 31 11 46 -22 7 -18 15 -36
18 -40 10 -19 -27 -5 -40 14 -15 23 -16 22 -23 -20 -6 -36 -4 -46 17 -67 12
-14 29 -25 36 -25 6 0 12 -7 12 -15 0 -8 3 -15 8 -15 7 0 21 -27 41 -81 8 -23
4 -31 -44 -77 -49 -48 -75 -66 -61 -43 3 5 -5 16 -18 25 -13 8 -36 27 -51 41
-25 23 -27 30 -22 74 3 28 13 61 22 75 17 25 13 90 -6 102 -8 5 -33 -43 -59
-113 -7 -18 -16 -33 -21 -33 -5 0 -9 -9 -9 -19 0 -11 -4 -23 -10 -26 -5 -3
-10 -15 -10 -26 0 -11 -10 -36 -23 -57 -13 -20 -21 -45 -19 -55 2 -10 -3 -26
-11 -35 -8 -9 -20 -42 -27 -72 -7 -30 -19 -76 -27 -102 -8 -25 -16 -70 -18
-99 -3 -29 -13 -63 -22 -77 -32 -45 -72 -117 -73 -129 0 -7 9 -13 20 -13 11 0
20 -4 20 -10 0 -5 -4 -10 -10 -10 -5 0 -10 -8 -10 -17 0 -16 2 -16 10 -3 8 11
10 0 8 -39 l-3 -54 -50 -14 c-27 -9 -56 -17 -64 -19 -7 -2 -10 -11 -7 -19 4
-10 -3 -20 -19 -27 -27 -12 -31 -23 -14 -34 6 -3 17 -21 25 -39 12 -29 12 -39
-1 -75 -8 -23 -14 -44 -13 -48 8 -30 -73 -112 -110 -112 -38 0 -47 25 -29 88
9 31 22 82 30 112 8 30 18 62 21 71 6 13 0 15 -29 13 -42 -4 -43 1 -10 46 14
19 25 41 25 49 0 8 6 22 14 30 8 9 28 41 44 72 17 31 42 68 56 82 28 28 33 55
14 76 -8 9 -8 11 -2 8 11 -6 26 13 29 38 4 24 17 72 26 90 14 30 48 134 63
190 8 28 26 84 41 125 15 41 33 95 40 120 22 77 74 224 86 245 9 14 9 20 0 23
-6 2 -11 13 -11 25 0 12 -9 37 -20 55 -23 38 -19 50 34 101 20 19 36 39 36 45
0 5 6 17 14 25 7 9 24 35 37 59 20 37 21 45 9 53 -13 8 -13 10 0 19 13 8 12
10 -3 10 -30 0 -57 -19 -68 -48 l-11 -27 -12 24 c-11 20 -14 21 -19 7 -6 -15
-10 -14 -31 9 -17 18 -26 22 -29 13 -3 -7 -6 -3 -6 9 -1 12 -6 25 -11 28 -13
8 -3 25 15 25 7 0 27 -14 44 -31 l31 -31 0 31 c0 36 28 98 47 105 7 3 13 2 13
-2 0 -4 19 -8 42 -10 23 -1 46 -8 50 -15 6 -9 8 -9 8 0 0 6 12 25 26 42 l26
31 -17 50 c-16 48 -45 77 -65 65 -9 -6 -28 -10 -108 -22 -48 -8 -90 14 -108
56 -22 51 -23 63 -6 89 13 20 13 25 1 33 -8 5 -22 7 -32 5 -62 -15 -180 70
-193 139 -10 56 1 112 31 147 36 43 65 57 95 46 28 -10 142 1 134 13 -8 13 3
11 35 -5 15 -8 47 -36 70 -62 39 -44 42 -51 37 -88 -4 -21 -16 -51 -26 -66
-11 -16 -20 -30 -20 -32 0 -2 25 -5 55 -6 43 -1 63 -7 90 -28 l35 -26 42 33
c48 38 59 50 52 60 -5 8 53 110 69 120 5 3 8 9 7 13 -1 4 7 31 19 61 12 30 31
81 42 113 26 68 48 121 59 143 4 8 4 23 -2 32 -11 21 -2 38 17 30 9 -3 15 1
15 8 0 15 4 11 42 -42z m255 45 c-3 -3 -12 -4 -19 -1 -8 3 -5 6 6 6 11 1 17
-2 13 -5z m3194 -64 l24 -20 -23 -19 c-24 -21 -49 -19 -69 7 -18 22 -16 31 10
42 31 12 32 12 58 -10z m-2201 -36 c41 -8 83 -22 92 -31 23 -20 24 -83 3 -124
-35 -67 -141 -63 -128 4 4 19 0 27 -16 32 -11 3 -25 4 -30 1 -15 -9 -28 16
-34 66 -5 38 -3 49 11 57 22 13 15 14 102 -5z m-770 -29 c7 -8 10 -22 6 -30
-6 -17 -35 -21 -37 -5 -3 20 -4 25 -12 38 -12 18 28 16 43 -3z m-325 -26 c4
-6 34 -22 67 -36 34 -15 54 -29 48 -33 -7 -4 -12 -11 -12 -16 -1 -31 -54 -64
-112 -68 -22 -2 -33 4 -47 28 -22 36 -25 87 -7 116 14 21 52 27 63 9z m-1148
-58 c40 -47 35 -123 -10 -166 -18 -16 -43 -44 -57 -62 l-25 -31 -48 14 c-42
13 -51 21 -67 57 -16 36 -17 45 -5 63 7 11 19 41 25 65 14 53 24 66 64 84 43
18 96 8 123 -24z m-2389 4 c19 -5 22 -13 22 -53 0 -26 -4 -52 -8 -59 -13 -21
-66 -35 -109 -28 -40 6 -43 8 -43 38 0 46 30 100 60 108 25 7 36 6 78 -6z
m5031 -26 c29 -27 41 -60 41 -112 0 -48 -6 -59 -37 -76 -29 -15 -63 -14 -106
4 -41 17 -57 40 -57 84 0 47 17 79 52 101 42 26 78 25 107 -1z m-1809 -4 c-7
-8 -17 -15 -23 -15 -6 0 -2 7 9 15 25 19 30 19 14 0z m170 -25 c0 -5 -2 -10
-4 -10 -3 0 -8 5 -11 10 -3 6 -1 10 4 10 6 0 11 -4 11 -10z m-180 -30 c-6 -11
-13 -20 -15 -20 -3 0 -5 9 -5 20 0 11 7 20 15 20 13 0 14 -4 5 -20z m-1310
-55 c7 -4 41 -9 74 -9 120 -2 142 -47 83 -166 l-32 -65 -71 -3 c-65 -3 -72 -1
-98 25 -25 24 -35 27 -99 29 -40 0 -81 -4 -92 -10 -11 -5 -42 -13 -70 -16 -43
-4 -50 -8 -47 -25 19 -128 13 -140 -88 -176 -41 -14 -89 -32 -107 -40 -24 -10
-37 -10 -57 -1 -33 15 -72 75 -88 135 -11 44 -11 52 7 85 13 23 37 46 65 60
41 22 50 23 93 13 62 -14 107 -14 107 0 0 6 -9 23 -20 39 l-20 28 49 45 c54
51 95 64 146 47 30 -10 39 -9 75 12 38 23 43 24 108 13 38 -7 75 -16 82 -20z
m3366 14 c50 -18 144 -139 144 -184 0 -8 25 -42 56 -76 69 -75 68 -93 -5 -97
-30 -2 -59 2 -64 7 -15 15 -27 14 -27 -3 0 -14 -75 -36 -121 -36 -49 0 -129
32 -154 62 l-25 30 20 33 c11 18 18 40 14 48 -15 39 55 85 112 74 32 -6 43 31
20 65 -17 24 -22 88 -7 88 5 0 22 -5 37 -11z m1166 -37 c-8 -2 -10 -8 -4 -15
13 -16 -4 -57 -23 -57 -19 0 -19 19 1 59 9 18 20 28 27 24 8 -5 7 -8 -1 -11z
m-5242 -41 c16 -31 12 -59 -12 -75 -31 -22 -45 -20 -64 9 -19 29 -12 58 19 73
33 16 45 14 57 -7z m4964 -16 c50 -21 71 -56 61 -103 -4 -20 -10 -59 -14 -87
-8 -62 -32 -73 -51 -23 -7 18 -20 53 -30 78 -32 80 -38 150 -12 150 5 0 26 -7
46 -15z m-2453 -19 c43 -18 79 -52 79 -74 0 -9 9 -32 20 -50 25 -40 25 -42 1
-42 -11 0 -32 -11 -48 -24 -44 -36 -71 -48 -76 -33 -3 8 -9 6 -19 -7 -12 -16
-18 -17 -38 -6 -18 10 -24 9 -30 0 -5 -8 -15 -10 -26 -5 -11 5 -22 8 -25 7 -4
-1 -30 8 -60 18 -30 11 -57 16 -63 11 -24 -18 -58 -18 -96 0 -21 10 -44 19
-50 19 -5 0 -10 4 -10 10 0 5 31 9 69 9 39 -1 75 2 80 6 6 3 11 20 11 37 0 62
81 139 129 123 10 -3 29 -1 42 4 35 14 72 13 110 -3z m-2937 -61 c16 -24 16
-27 -12 -68 -16 -23 -31 -50 -35 -59 -9 -24 -21 -22 -36 5 -17 33 1 100 36
126 14 12 27 21 28 21 2 0 10 -11 19 -25z m3870 -21 c44 -44 -15 -108 -77 -85
-27 10 -45 50 -32 71 18 29 86 38 109 14z m-3584 -44 c32 -32 25 -64 -20 -103
-81 -69 -171 -68 -200 2 -17 43 -3 57 93 92 90 33 102 34 127 9z m1182 -27
c43 -47 54 -129 23 -176 -17 -27 -22 -28 -64 -22 -52 7 -101 50 -101 88 0 28
80 137 101 137 8 0 27 -12 41 -27z m1992 -39 c9 -3 16 -17 16 -29 0 -13 5 -27
10 -30 15 -9 12 -57 -5 -79 -8 -10 -25 -20 -37 -21 -13 -2 -46 -10 -73 -19
-65 -23 -80 -9 -70 61 3 27 9 54 13 60 4 6 34 22 67 36 33 14 61 26 62 26 1 1
8 -2 17 -5z m-2230 -39 c3 -8 12 -15 20 -15 15 0 15 -12 0 -87 -6 -29 -27 -29
-64 -1 -36 26 -37 36 -9 82 22 38 43 46 53 21z m3910 -27 c65 -19 92 -42 106
-94 7 -26 24 -58 37 -72 25 -27 29 -73 10 -99 -18 -25 1 -40 59 -46 48 -5 62
-3 86 14 40 29 89 34 127 15 60 -31 66 -92 14 -140 -40 -37 -76 -42 -118 -16
l-35 21 -11 -23 c-10 -22 -83 -82 -113 -94 -21 -8 -96 70 -96 100 0 29 -17 43
-33 27 -9 -9 -8 -16 1 -31 30 -49 -9 -147 -79 -196 -52 -36 -103 -37 -174 -3
-55 26 -68 54 -40 83 22 21 13 58 -17 71 -46 20 -29 64 46 117 21 16 42 21 90
20 54 -1 65 2 95 27 33 29 33 29 12 41 -13 7 -39 9 -66 5 -24 -4 -48 -5 -53
-1 -5 3 -5 28 0 63 12 77 11 99 -8 128 -19 29 -7 57 34 79 33 19 72 20 126 4z
m527 2 c27 -15 26 -73 -3 -100 -29 -26 -84 -27 -98 -1 -5 11 -7 21 -2 23 4 2
19 22 35 46 29 44 37 48 68 32z m-3754 -50 c-9 -35 15 -89 61 -135 24 -25 49
-45 55 -45 6 0 2 -8 -9 -18 -22 -21 -65 -22 -89 -2 -42 35 -60 137 -33 195 13
30 22 33 15 5z m-1929 -2 c5 -7 13 -23 16 -35 8 -25 11 -21 -123 -143 -134
-121 -136 -123 -159 -161 -24 -40 -62 -64 -97 -61 -42 3 -110 45 -113 70 -4
30 12 49 64 76 91 46 153 90 249 175 100 90 139 108 163 79z m2510 -32 c3 -36
6 -39 68 -67 35 -16 64 -34 64 -40 0 -12 -22 -7 -111 28 -61 23 -137 73 -112
73 6 0 21 11 34 25 33 35 53 28 57 -19z m657 23 c4 -12 8 -55 9 -96 2 -65 1
-71 -10 -51 -18 32 -30 111 -25 158 2 18 19 11 26 -11z m-2040 -24 c22 -14 50
-25 63 -25 34 0 62 -34 62 -75 0 -44 -21 -87 -66 -133 -19 -19 -39 -52 -44
-72 -12 -43 -20 -51 -77 -73 -47 -19 -99 -8 -107 21 -15 55 -27 172 -22 213 6
42 4 50 -19 74 -33 32 -28 51 13 47 20 -2 44 6 69 22 48 31 78 32 128 1z
m3747 8 c23 -28 91 -202 84 -218 -11 -29 -54 4 -72 54 -10 25 -37 66 -61 91
-59 62 -58 90 2 90 18 0 38 -8 47 -17z m-4374 -50 c10 -19 8 -34 -10 -70 -9
-18 -6 -27 14 -52 18 -21 27 -47 32 -90 4 -33 10 -62 14 -65 9 -5 7 -130 -3
-146 -17 -27 -76 -41 -142 -34 -56 6 -70 11 -99 41 -36 36 -37 38 -35 152 1
63 4 78 27 108 14 19 45 43 69 53 31 13 44 26 49 45 16 63 65 96 84 58z m4219
-43 c54 -52 60 -83 30 -151 -34 -77 -46 -84 -87 -54 -23 17 -47 25 -76 25 -49
0 -61 12 -69 65 -8 50 22 99 80 132 55 31 74 29 122 -17z m-1216 -2 c56 -59
83 -145 56 -182 -19 -26 -136 -32 -143 -7 -3 9 -16 39 -28 66 -38 80 -46 104
-40 120 3 8 9 13 13 11 3 -2 17 2 31 10 42 23 77 17 111 -18z m935 -23 c20
-31 12 -69 -21 -91 -13 -8 -52 -17 -86 -19 -74 -5 -99 10 -99 60 0 51 40 73
137 74 45 1 55 -2 69 -24z m-3656 -24 c0 -15 -7 -36 -15 -47 -19 -25 -19 -59
1 -111 15 -39 15 -45 1 -66 -12 -18 -28 -26 -67 -31 -59 -8 -70 -3 -70 28 0
12 -5 27 -10 32 -7 7 -7 20 1 42 9 25 8 36 -5 54 -18 25 -21 85 -6 108 6 10
32 17 77 20 85 7 93 4 93 -29z m2920 -11 c13 -9 10 -14 -15 -35 -35 -29 -35
-29 -60 -11 -19 14 -19 15 -1 35 20 23 52 27 76 11z m-513 -129 c-4 -20 1 -39
19 -64 41 -61 25 -89 -29 -47 -16 13 -26 33 -29 57 -3 21 -8 46 -12 55 -5 11
0 24 15 39 20 20 22 20 31 4 6 -9 8 -29 5 -44z m697 37 c8 -13 18 -35 21 -51
4 -15 12 -27 19 -26 29 4 36 -3 36 -33 0 -50 -33 -78 -92 -78 -51 0 -128 20
-128 32 0 5 -7 8 -16 8 -12 0 -15 8 -11 34 6 41 11 51 56 98 44 45 92 52 115
16z m-2414 -69 c9 -16 7 -30 -12 -67 -20 -40 -30 -48 -78 -65 -43 -15 -61 -16
-82 -8 -46 18 -37 51 30 110 46 41 64 51 94 51 28 0 40 -5 48 -21z m2020 -19
c16 -16 20 -33 20 -82 0 -36 6 -75 15 -92 23 -43 20 -68 -7 -64 -20 3 -24 13
-35 85 -7 45 -22 99 -33 120 -11 21 -20 41 -20 45 0 16 41 7 60 -12z m-4136
-52 c43 -20 46 -21 64 -5 18 16 20 16 33 1 12 -15 11 -18 -5 -28 -69 -41 -81
-68 -46 -99 37 -31 15 -93 -47 -129 -27 -16 -31 -16 -76 8 -58 29 -88 30 -112
4 -41 -45 -84 35 -63 117 18 72 112 152 180 153 15 0 48 -10 72 -22z m1848
-49 c30 -16 38 -26 43 -56 13 -81 13 -79 -14 -81 -32 -2 -71 -45 -71 -78 0
-17 9 -30 30 -42 37 -21 38 -30 4 -42 -58 -22 -146 0 -159 40 -3 10 -15 20
-27 22 -26 4 -58 62 -58 105 0 24 12 45 52 88 29 32 61 61 72 65 28 10 83 1
128 -21z m-420 2 c13 -6 40 -13 61 -16 45 -7 77 -36 77 -68 0 -36 -29 -58
-149 -117 -102 -50 -142 -60 -187 -49 -37 10 -43 15 -48 45 -12 59 26 109 104
140 25 9 61 30 80 45 41 33 34 31 62 20z m4853 -76 c35 -34 32 -61 -10 -82
-23 -12 -79 -7 -112 9 -28 14 -31 53 -6 80 25 28 97 25 128 -7z m-314 -36 c32
-23 59 -67 59 -98 0 -25 -21 -37 -82 -46 -43 -7 -49 -5 -84 27 -28 27 -37 42
-36 66 1 39 8 51 36 62 36 15 77 11 107 -11z m644 -9 c19 -16 -18 -77 -61
-102 -17 -10 -35 -29 -39 -41 -6 -18 -8 -19 -12 -5 -2 9 -14 23 -27 31 -18 12
-23 25 -24 64 -1 68 10 77 86 70 36 -4 70 -11 77 -17z m-6133 -32 c22 -6 48
-24 59 -40 11 -15 17 -28 13 -28 -3 0 -2 -6 4 -13 29 -34 -33 -157 -79 -157
-10 0 -19 -4 -19 -10 0 -5 -7 -7 -15 -4 -8 4 -15 1 -15 -5 0 -6 -9 -11 -20
-11 -26 0 -70 70 -70 110 0 46 67 170 92 170 6 0 28 -5 50 -12z m4168 -16 c19
-15 22 -25 16 -53 -10 -53 -27 -68 -79 -71 l-46 -3 6 -56 c4 -43 0 -73 -16
-122 -11 -37 -21 -77 -21 -91 0 -19 -16 -36 -34 -36 -2 0 5 33 15 73 18 71 20
191 3 246 -6 20 -4 22 15 16 19 -6 21 -3 21 28 0 22 8 40 23 54 40 37 66 40
97 15z m-372 -46 c33 -37 47 -91 36 -139 -8 -39 -32 -87 -43 -87 -4 0 -27 18
-50 41 l-43 40 22 19 c13 11 17 21 10 25 -7 4 -6 13 2 28 6 12 10 41 9 65 -2
53 15 56 57 8z m1292 -16 c31 -22 52 -76 43 -110 -6 -23 -51 -50 -82 -50 -14
0 -25 11 -36 36 -14 35 -15 35 -67 32 -46 -3 -53 0 -64 21 -24 46 19 100 91
114 24 4 75 -15 115 -43z m-4390 2 c3 -12 12 -30 20 -39 47 -55 62 -85 57
-113 -4 -18 -1 -32 8 -40 27 -22 -4 -48 -77 -64 -16 -4 -28 -13 -28 -21 0 -14
38 -55 51 -55 14 0 18 -31 8 -56 -15 -41 -3 -60 47 -74 47 -13 52 -28 17 -45
-37 -19 -53 -37 -53 -61 0 -44 -36 -42 -57 3 -7 15 -13 37 -13 49 0 31 -14 37
-47 21 -15 -8 -47 -18 -70 -22 -36 -6 -46 -3 -66 17 -13 13 -26 30 -28 37 -7
20 -49 4 -49 -18 0 -9 13 -30 29 -45 25 -24 35 -27 65 -22 42 8 82 -8 139 -55
30 -24 37 -37 37 -65 0 -19 4 -34 9 -34 4 0 25 14 46 30 43 34 41 34 120 19
129 -24 166 -58 149 -136 -4 -21 -7 -41 -6 -44 11 -57 11 -58 -24 -69 -36 -12
-64 -52 -64 -89 0 -22 0 -22 -127 -6 -32 4 -44 -7 -22 -20 6 -4 8 -14 5 -22
-4 -8 10 -40 29 -72 61 -99 45 -143 -82 -219 -57 -34 -65 -34 -125 6 -51 33
-141 39 -176 12 -37 -30 -59 -5 -27 29 8 9 25 29 37 44 14 17 34 29 52 30 29
2 30 5 45 82 9 44 23 90 31 101 21 29 80 64 109 64 21 0 23 3 16 33 -4 17 -13
56 -19 86 -12 51 -13 53 -27 34 -27 -39 -85 -70 -135 -71 -27 -1 -56 -5 -66
-8 -10 -3 -24 6 -39 28 -13 18 -27 35 -31 36 -4 2 -8 15 -8 28 0 17 -8 27 -25
34 -34 13 -39 31 -21 75 20 47 20 62 1 62 -8 0 -15 -4 -15 -9 0 -5 -19 -8 -42
-6 -41 3 -44 5 -52 41 -13 50 1 86 44 115 22 15 34 30 31 40 -11 52 -3 131 19
170 45 80 151 91 201 21 11 -16 24 -29 29 -29 5 0 23 13 40 29 32 29 32 29 20
82 -6 30 -10 79 -8 109 3 51 5 55 33 63 17 5 37 13 45 18 22 11 34 6 40 -19z
m4142 -9 c18 -16 25 -53 10 -53 -5 0 -14 -11 -20 -24 -16 -36 -49 -42 -77 -16
-20 19 -22 26 -13 51 9 26 48 58 72 59 5 0 18 -7 28 -17z m862 -25 c40 -47 40
-70 -2 -125 -21 -28 -31 -33 -66 -33 -39 0 -43 3 -55 35 -7 19 -10 39 -6 44 3
6 6 27 7 48 1 56 13 73 53 73 27 0 40 -8 69 -42z m-4040 7 c39 -36 32 -64 -22
-82 -34 -11 -47 -12 -58 -2 -14 12 -20 90 -7 102 15 15 62 5 87 -18z m-2271
-12 c15 -3 32 -14 38 -25 9 -16 4 -25 -26 -54 -20 -19 -45 -34 -55 -34 -23 0
-53 30 -74 74 -15 30 -14 31 7 34 12 2 27 8 32 13 6 6 19 7 30 4 11 -3 33 -8
48 -12z m1770 -56 c9 -30 17 -70 17 -90 0 -33 -4 -39 -40 -57 -39 -20 -41 -20
-65 -3 -41 31 -50 57 -35 105 18 63 46 98 78 98 24 0 29 -7 45 -53z m4254 -63
c22 -30 15 -48 -42 -103 l-55 -53 -40 32 c-70 56 -91 108 -51 130 59 31 163
28 188 -6z m-4439 -19 c15 -41 3 -91 -50 -203 -28 -61 -37 -72 -58 -72 -14 0
-36 7 -49 16 -27 20 -24 60 9 102 11 14 30 46 41 71 26 59 68 121 83 121 7 0
18 -16 24 -35z m3588 -13 c6 -4 14 -19 17 -33 7 -26 6 -26 -34 -19 -54 10 -70
27 -45 46 22 15 45 18 62 6z m-5062 -32 c26 -9 42 -47 38 -85 -7 -52 -36 -94
-97 -138 l-64 -46 -34 42 c-18 23 -37 54 -40 68 -10 39 11 89 54 132 31 30 45
37 78 37 22 0 51 -4 65 -10z m6556 -49 c22 -21 40 -41 40 -45 0 -13 -59 -5
-74 10 -14 14 -23 74 -11 74 3 0 23 -17 45 -39z m-3500 -18 c0 -20 -24 -11
-28 10 -2 12 1 15 12 11 9 -3 16 -13 16 -21z m1295 -25 c37 -33 75 -95 75
-123 0 -15 -26 -20 -54 -9 -9 3 -19 23 -22 45 -5 29 -12 39 -28 41 -15 2 -20
9 -18 25 2 12 -2 24 -8 28 -11 7 -4 25 10 25 4 0 25 -15 45 -32z m523 -10 c87
5 126 -13 116 -52 -3 -13 0 -34 6 -46 15 -29 5 -70 -18 -70 -10 0 -28 7 -41
16 -19 13 -22 23 -18 49 5 27 1 34 -19 44 -14 6 -35 11 -47 11 -13 0 -28 5
-34 11 -8 8 -17 8 -31 0 -35 -19 -43 12 -15 56 l17 26 6 -24 c6 -23 9 -24 78
-21z m761 26 c26 -19 64 -100 55 -117 -25 -44 -48 -57 -100 -57 -62 0 -90 22
-100 78 -14 75 83 139 145 96z m-1352 -50 c2 -6 -3 -18 -11 -29 -12 -16 -16
-17 -30 -6 -16 14 -22 52 -9 64 7 8 45 -14 50 -29z m-1812 11 c-16 -7 -43 -27
-59 -44 -38 -40 -51 -40 -31 0 17 31 64 59 100 58 15 -1 13 -4 -10 -14z m2174
-6 c25 -9 31 -16 31 -39 0 -16 -8 -35 -17 -42 -10 -7 -23 -22 -29 -33 -14 -26
-45 -30 -82 -11 -29 15 -30 17 -21 57 12 52 16 58 43 69 29 12 38 12 75 -1z
m-544 -19 c-3 -5 -11 -10 -16 -10 -6 0 -7 5 -4 10 3 6 11 10 16 10 6 0 7 -4 4
-10z m2051 -67 c22 -40 22 -43 4 -40 -29 5 -60 37 -60 64 0 37 28 25 56 -24z
m492 31 c31 -9 28 -45 -7 -83 -38 -40 -66 -42 -56 -3 5 15 9 38 10 52 1 14 3
28 3 33 2 8 19 9 50 1z m-4987 -33 c83 -38 114 -77 106 -135 -6 -40 -38 -79
-108 -127 -23 -16 -23 -16 37 -48 65 -34 94 -71 94 -119 0 -45 -9 -61 -45 -78
-55 -26 -123 -6 -149 44 -22 44 -48 144 -42 165 3 14 -3 22 -25 30 -16 6 -29
15 -29 19 0 4 -16 24 -35 45 -20 21 -38 48 -41 61 -19 70 69 172 147 172 14 0
55 -13 90 -29z m3078 -10 c30 -19 -22 -121 -61 -121 -3 0 -14 7 -22 16 -18 17
-22 59 -6 49 6 -4 17 10 25 29 15 36 36 45 64 27z m-1878 -28 c5 -16 13 -35
16 -43 4 -8 8 -19 8 -25 1 -5 5 -23 10 -38 5 -21 2 -39 -14 -71 -12 -23 -23
-50 -25 -60 -1 -9 -10 -26 -20 -37 -13 -16 -24 -19 -44 -14 -15 5 -35 7 -44 7
-12 0 -19 9 -22 31 -8 49 -15 184 -9 168 3 -8 13 0 27 25 19 35 77 84 98 84 5
0 13 -12 19 -27z m-436 7 c3 -5 2 -10 -4 -10 -5 0 -13 5 -16 10 -3 6 -2 10 4
10 5 0 13 -4 16 -10z m3413 -67 c63 -51 54 -133 -13 -133 -12 0 -32 -9 -45
-20 -30 -26 -60 -25 -103 3 -63 40 -76 106 -29 149 36 34 49 38 105 34 35 -2
58 -11 85 -33z m-5915 -12 c29 -42 36 -101 15 -118 -30 -22 -139 -62 -155 -56
-47 16 -67 66 -46 118 7 21 119 95 142 95 9 0 28 -18 44 -39z m6057 25 c0 -13
-49 -56 -64 -56 -3 0 2 16 11 35 17 35 53 49 53 21z m791 -13 c4 -116 1 -144
-22 -180 -14 -21 -31 -51 -39 -67 -18 -35 -55 -55 -72 -38 -13 13 -48 100 -48
120 0 6 8 12 18 12 27 0 118 92 132 134 12 38 30 48 31 19z m-2121 -63 c0 -21
-25 -44 -40 -35 -13 8 -13 38 1 52 15 15 39 5 39 -17z m1459 -14 c36 -19 77
-80 92 -137 21 -80 -5 -129 -70 -129 -30 0 -42 6 -57 26 -10 15 -29 39 -42 54
-25 32 -52 91 -52 116 0 9 9 32 21 50 23 38 59 45 108 20z m-989 -180 c0 -8
-4 -18 -10 -21 -5 -3 -10 3 -10 14 0 12 5 21 10 21 6 0 10 -6 10 -14z m-2912
-76 c-2 -17 -9 -25 -23 -25 -16 0 -20 6 -18 29 1 16 5 37 8 45 6 14 9 13 21
-4 8 -11 14 -31 12 -45z m2580 37 c6 -29 -25 -65 -67 -78 -49 -14 -71 -7 -71
24 0 18 12 30 48 50 52 30 85 31 90 4z m-3958 -23 c17 -26 47 -47 106 -76 105
-50 114 -60 87 -96 -71 -96 -221 -116 -299 -41 -41 40 -48 66 -29 120 17 46
79 129 98 129 7 0 23 -16 37 -36z m3590 29 c-1 -18 -19 -35 -29 -28 -9 5 -9
10 0 21 12 15 29 19 29 7z m-4523 -19 c3 -8 -4 -25 -16 -38 -26 -28 -26 -34 0
-62 44 -47 -12 -80 -81 -49 -48 22 -72 47 -65 67 7 16 47 38 70 38 9 0 15 10
15 24 0 13 6 27 13 29 26 11 58 6 64 -9z m3983 -8 c0 -3 -4 -8 -10 -11 -5 -3
-10 -1 -10 4 0 6 5 11 10 11 6 0 10 -2 10 -4z m310 -45 c0 -14 -18 -23 -30
-16 -6 4 -8 11 -5 16 8 12 35 12 35 0z m-3695 -11 c14 -5 30 -22 35 -36 6 -15
20 -40 31 -55 27 -39 41 -87 26 -92 -8 -3 -5 -11 7 -26 15 -16 17 -24 8 -33
-32 -32 15 -88 73 -88 32 0 56 -19 68 -52 8 -22 -38 -114 -63 -128 -10 -5 -40
-10 -65 -10 -39 0 -46 -3 -41 -17 2 -10 7 -44 11 -75 7 -66 -1 -72 -46 -33
-35 29 -53 24 -69 -18 -6 -18 -18 -47 -26 -65 -8 -18 -14 -53 -14 -77 0 -31
-4 -45 -13 -45 -9 0 -12 10 -9 31 2 17 0 40 -6 52 -5 12 -14 34 -20 48 -5 14
-25 33 -44 42 -45 21 -78 54 -78 77 0 10 -4 22 -10 25 -19 12 -10 58 19 90 16
18 31 50 35 73 3 23 11 44 18 48 7 5 8 2 3 -7 -5 -9 -5 -11 2 -4 5 6 15 30 22
54 7 24 28 59 47 79 19 19 34 38 34 42 0 3 -15 14 -34 22 -46 23 -51 56 -17
121 17 34 35 54 51 58 36 10 36 10 65 -1z m4079 -89 c-3 -3 -9 1 -13 8 -6 9
-14 1 -27 -28 -11 -22 -22 -41 -26 -41 -13 0 -9 29 7 60 9 17 13 30 10 30 -4
0 -3 5 0 11 5 7 16 2 31 -12 13 -12 21 -25 18 -28z m36 14 c0 -8 -4 -15 -10
-15 -5 0 -10 7 -10 15 0 8 5 15 10 15 6 0 10 -7 10 -15z m-1950 -20 c11 -13
10 -14 -4 -9 -9 3 -16 10 -16 15 0 13 6 11 20 -6z m1820 5 c0 -5 -7 -10 -16
-10 -8 0 -12 5 -9 10 3 6 10 10 16 10 5 0 9 -4 9 -10z m-1583 -22 c14 -18 58
-151 74 -222 13 -59 13 -59 -14 -80 -15 -12 -48 -27 -73 -34 -68 -18 -120 8
-169 83 -28 45 -40 55 -53 49 -19 -9 -57 -9 -87 -1 -11 3 -24 6 -28 6 -15 2
-2 46 13 46 8 0 14 -7 12 -15 -3 -12 0 -12 15 2 10 9 32 19 49 22 18 4 49 26
75 53 81 84 161 123 186 91z m1743 -77 c-1 -13 -4 -12 -15 3 -8 11 -15 27 -15
35 1 13 4 12 15 -3 8 -11 15 -27 15 -35z m-507 15 c7 -17 -11 -36 -35 -36 -21
0 -22 4 -8 31 12 22 36 25 43 5z m-2517 -28 c47 -52 49 -58 23 -82 l-24 -22
-38 20 c-21 11 -34 22 -28 24 6 2 11 16 11 32 0 33 9 60 19 60 4 0 21 -15 37
-32z m3569 13 c9 -16 -7 -122 -18 -118 -6 2 -12 31 -14 65 -3 49 0 62 11 62 8
0 17 -4 21 -9z m-3186 -74 c12 -15 4 -30 -26 -46 -24 -12 -31 -45 -13 -56 26
-16 -2 -65 -32 -57 -10 2 -25 -1 -33 -8 -18 -15 -47 -6 -39 14 3 8 -6 25 -20
38 -31 29 -49 81 -33 97 6 6 21 11 33 11 13 0 25 4 28 8 8 13 123 12 135 -1z
m506 -47 c8 -36 0 -50 -26 -50 -27 0 -34 25 -15 55 22 33 33 32 41 -5z m-481
-26 c11 -28 6 -64 -8 -64 -14 0 -26 29 -26 63 0 21 26 23 34 1z m1744 -9 c-3
-3 -9 2 -12 12 -6 14 -5 15 5 6 7 -7 10 -15 7 -18z m-1530 -11 c4 -28 -41 -52
-63 -34 -21 18 -19 27 13 43 34 18 46 16 50 -9z m1872 17 c0 -6 -4 -13 -10
-16 -5 -3 -10 1 -10 9 0 9 5 16 10 16 6 0 10 -4 10 -9z m1080 -22 c0 -20 -15
-26 -24 -10 -8 13 4 42 15 35 5 -3 9 -14 9 -25z m-1174 10 c10 -17 -13 -36
-27 -22 -12 12 -4 33 11 33 5 0 12 -5 16 -11z m-1476 -59 c15 -15 17 -25 11
-42 -12 -33 -53 -31 -65 3 -18 53 15 78 54 39z m-705 -11 c10 -15 -1 -23 -20
-15 -9 3 -13 10 -10 16 8 13 22 13 30 -1z m3393 -94 c1 -32 -2 -45 -11 -42
-14 4 -24 45 -25 97 l-1 35 18 -22 c12 -14 19 -39 19 -68z m-4019 11 c59 -31
111 -114 111 -178 0 -10 -14 -24 -32 -32 -40 -17 -70 -49 -95 -101 -18 -39
-19 -40 -70 -40 -42 1 -61 7 -94 31 -59 43 -81 86 -76 150 9 127 154 222 256
170z m781 -22 c0 -14 -12 -19 -23 -8 -9 9 4 35 14 28 5 -3 9 -12 9 -20z m223
-17 c-3 -5 -10 -4 -15 1 -6 6 -7 16 -3 22 6 9 9 9 16 -1 4 -7 5 -17 2 -22z
m2347 -42 c0 -15 -6 -25 -14 -25 -23 0 -28 17 -10 34 21 21 24 20 24 -9z m677
-12 c9 -32 6 -93 -6 -93 -10 0 -33 99 -25 111 10 17 22 9 31 -18z m-4409 -19
c21 -15 33 -74 14 -74 -4 0 -13 -19 -19 -43 -7 -23 -24 -56 -38 -71 -14 -16
-24 -35 -21 -42 11 -28 -35 6 -56 42 -20 34 -38 45 -38 23 0 -8 -5 -8 -15 1
-10 8 -15 30 -15 65 l0 52 38 7 c20 3 51 18 67 31 35 29 52 31 83 9z m6048
-67 c129 -134 145 -167 84 -167 -35 0 -80 37 -113 93 -14 23 -37 52 -51 64
-17 15 -26 33 -26 53 0 49 28 37 106 -43z m-900 -29 l24 -47 -21 -12 c-18 -9
-25 -7 -46 13 -29 29 -43 96 -22 108 18 12 36 -5 65 -62z m-1772 43 c3 -5 0
-14 -7 -19 -10 -8 -13 -6 -14 9 -2 19 11 26 21 10z m379 -88 c3 -5 1 -18 -4
-30 -7 -20 -11 -21 -39 -12 -40 14 -46 27 -18 38 29 12 55 13 61 4z m1732 -27
c120 -25 133 -36 90 -76 -24 -23 -26 -23 -62 -7 -21 9 -56 21 -77 26 -41 11
-86 46 -86 68 0 17 4 16 135 -11z m-2596 -69 c13 -35 10 -41 -17 -33 -20 7
-41 44 -35 62 7 21 42 2 52 -29z m1159 -8 c4 -34 -22 -45 -54 -24 -13 9 -24
19 -24 23 0 17 26 33 50 30 19 -2 26 -10 28 -29z m-273 -19 c8 -16 15 -41 15
-57 0 -26 -1 -27 -14 -7 -8 11 -16 29 -18 39 -1 11 -7 23 -12 26 -8 6 -1 29 9
29 3 0 11 -13 20 -30z m1574 -35 c46 -42 85 -118 77 -150 -4 -15 2 -32 15 -49
12 -15 21 -41 21 -61 0 -71 -27 -73 -91 -6 -89 93 -120 167 -107 256 9 57 30
59 85 10z m-4211 -25 c21 -26 50 -136 39 -147 -3 -2 -21 10 -41 27 -44 39 -71
118 -47 137 21 17 23 16 49 -17z m1821 -24 c13 -14 20 -29 16 -35 -9 -15 8
-14 23 1 19 19 50 -15 33 -36 -10 -11 -18 -13 -30 -5 -9 5 -29 18 -46 28 -19
11 -31 27 -33 44 -4 33 8 34 37 3z m157 -157 c8 -17 14 -38 12 -47 -5 -24 -78
49 -78 78 0 11 -4 19 -9 15 -16 -9 -24 15 -10 31 11 13 16 11 41 -16 15 -17
35 -45 44 -61z m-2702 -162 c35 -70 33 -136 -5 -122 -9 3 -21 -7 -31 -25 -15
-26 -23 -30 -62 -30 -25 0 -47 -4 -51 -10 -3 -5 -12 -7 -21 -3 -10 4 -12 9 -4
18 14 17 3 43 -22 51 -31 10 -16 59 35 108 23 23 50 51 59 63 27 35 69 15 102
-50z m896 -68 c97 -142 130 -219 116 -272 -6 -26 -43 -47 -81 -47 -51 0 -118
25 -134 49 -21 33 -20 130 2 162 23 32 21 46 -5 55 -48 15 -50 55 -6 101 18
18 37 33 43 33 5 0 35 -36 65 -81z m2549 -52 c14 -54 30 -97 37 -97 20 0 38
30 43 73 8 58 30 59 83 4 24 -24 53 -50 66 -56 25 -13 32 -71 9 -71 -30 0 -96
-106 -97 -153 0 -10 -11 -42 -25 -71 -27 -57 -55 -77 -117 -79 -27 -2 -34 2
-36 20 -2 13 -18 52 -37 87 -42 80 -51 159 -35 287 15 118 37 164 75 155 5 -1
21 -46 34 -99z m1442 47 c7 -20 6 -32 -6 -51 -20 -30 -41 -27 -68 9 -20 27
-20 28 -2 48 26 29 63 26 76 -6z m715 -19 c18 -38 13 -65 -11 -65 -9 0 -13 5
-10 10 4 6 -1 22 -10 36 -17 26 -14 54 4 54 6 0 18 -16 27 -35z m-5061 15 c4
-6 -10 -10 -34 -10 -22 0 -43 5 -46 10 -4 6 10 10 34 10 22 0 43 -4 46 -10z
m4951 -5 c16 -13 17 -16 4 -24 -57 -36 -58 -37 -22 -74 34 -35 53 -99 33 -111
-6 -4 -11 -37 -11 -80 0 -72 -14 -121 -37 -130 -7 -3 -12 -2 -11 2 3 13 -24
157 -34 178 -5 12 -11 49 -12 83 -2 57 -5 65 -35 92 l-33 29 27 10 c14 5 34
10 44 10 10 0 24 7 31 15 16 19 31 19 56 0z m-566 -147 c0 -19 -2 -20 -10 -8
-13 19 -13 30 0 30 6 0 10 -10 10 -22z m135 -24 c30 -33 36 -91 8 -78 -10 4
-35 9 -55 12 -45 5 -52 20 -27 61 23 38 42 39 74 5z m-5075 -38 c6 -18 4 -36
-8 -65 -14 -33 -22 -39 -44 -39 -19 1 -28 6 -28 17 0 9 -10 21 -22 26 -29 14
-34 32 -9 40 12 3 21 13 21 21 0 12 7 14 29 9 17 -3 32 -2 36 4 9 16 15 13 25
-13z m508 -20 c33 -18 82 -69 111 -118 13 -21 27 -38 32 -38 18 0 8 -32 -17
-55 l-26 -25 -29 21 c-16 11 -29 28 -29 38 0 18 -18 41 -32 41 -13 0 -9 -40 5
-55 8 -8 12 -26 9 -44 -8 -58 -37 -30 -47 45 -6 42 -4 52 9 57 23 9 20 42 -6
54 -19 8 -23 18 -21 49 1 22 2 40 2 42 2 5 13 1 39 -12z m2655 -50 c18 -18 27
-44 36 -102 7 -44 21 -98 32 -122 10 -24 23 -71 29 -105 7 -34 18 -87 26 -117
17 -64 18 -124 4 -151 -13 -24 -56 -25 -68 -1 -9 16 -23 91 -37 204 -8 60 -39
102 -65 88 -10 -5 -21 -24 -25 -41 -14 -61 -46 -120 -63 -117 -23 4 -37 79
-31 163 1 17 -1 49 -5 72 -9 50 6 103 41 149 12 17 23 35 23 39 0 14 52 65 66
65 7 0 24 -11 37 -24z m-2269 -105 c9 -19 10 -52 5 -121 -17 -242 -20 -330
-12 -387 5 -34 6 -68 1 -76 -10 -18 -71 -8 -112 18 -27 18 -28 21 -21 69 14
99 23 172 33 271 6 55 16 113 21 128 6 16 11 45 11 64 0 40 24 75 46 66 8 -3
20 -17 28 -32z m2842 -5 c3 -14 -3 -61 -14 -105 -11 -44 -18 -96 -15 -116 7
-49 -31 -121 -70 -134 -16 -6 -34 -8 -39 -5 -5 3 -24 8 -41 11 -18 3 -33 6
-35 8 -10 9 77 213 106 247 7 9 14 23 16 30 1 8 12 27 24 42 12 16 22 33 22
37 0 5 9 9 20 9 12 0 22 -9 26 -24z m-1942 -54 c-10 -41 -25 -57 -36 -38 -6
10 -3 27 7 46 19 36 38 31 29 -8z m1557 -27 c15 -32 17 -48 10 -68 -20 -51
-84 -43 -96 13 -13 60 16 117 52 103 8 -3 23 -25 34 -48z m-2127 -4 c40 -27
81 -62 91 -78 10 -15 25 -33 33 -39 17 -12 9 -66 -12 -83 -49 -41 -172 -43
-224 -4 -96 70 -82 248 21 252 10 1 51 -21 91 -48z m236 10 c5 -11 10 -29 10
-40 0 -12 3 -21 8 -21 18 0 32 -40 22 -65 -6 -16 -6 -25 0 -25 6 0 10 -5 10
-11 0 -13 -53 -5 -105 17 -34 14 -35 16 -35 70 0 71 12 94 50 94 19 0 33 -7
40 -19z m-780 -29 c0 -5 -6 -17 -14 -27 -12 -16 -16 -17 -30 -6 -12 10 -14 17
-5 27 12 15 49 19 49 6z m-143 -64 c-3 -7 -5 -2 -5 12 0 14 2 19 5 13 2 -7 2
-19 0 -25z m4538 -126 c16 -9 17 -11 4 -12 -9 0 -20 -7 -23 -16 -4 -10 -13
-13 -26 -9 -11 3 -20 2 -20 -3 0 -18 -47 -31 -85 -22 -44 10 -55 23 -55 67 0
36 16 48 69 52 19 1 37 4 39 6 3 2 21 -8 41 -24 20 -15 45 -33 56 -39z m-2211
-169 c6 -56 4 -79 -9 -102 -19 -38 -25 -38 -50 -1 -11 16 -23 30 -27 30 -5 0
-8 21 -8 46 0 27 4 43 10 39 6 -3 10 3 10 15 0 11 12 33 26 47 33 33 39 24 48
-74z m234 -35 c-3 -73 -5 -78 -37 -107 -19 -17 -37 -29 -40 -26 -20 12 -2 145
31 229 l12 29 19 -24 c16 -20 18 -36 15 -101z m2170 91 c-20 -13 -28 -11 -22
5 3 8 12 12 21 9 12 -5 12 -7 1 -14z m-3558 -59 c0 -5 -4 -10 -9 -10 -6 0 -13
5 -16 10 -3 6 1 10 9 10 9 0 16 -4 16 -10z m-1052 -33 c18 -22 18 -88 0 -101
-8 -6 -17 -20 -20 -31 -3 -15 -11 -19 -31 -18 -27 2 -34 -11 -19 -33 10 -15
109 -18 143 -4 15 7 35 23 44 36 18 28 37 31 55 9 19 -22 -3 -85 -38 -110 -22
-16 -42 -20 -108 -20 -87 1 -114 12 -114 47 0 11 -9 27 -21 37 -27 22 -32 109
-7 134 9 10 19 26 23 36 4 13 17 21 38 24 18 2 35 5 38 5 4 1 11 -4 17 -11z
m462 -77 c-19 -13 -30 -13 -30 0 0 6 10 10 23 10 18 0 19 -2 7 -10z m-140 -39
c0 -5 -7 -11 -15 -15 -8 -3 -15 -12 -15 -21 0 -8 -4 -15 -10 -15 -5 0 -10 -7
-10 -15 0 -8 -7 -15 -15 -15 -10 0 -6 13 16 45 28 42 49 57 49 36z m420 -1 c0
-5 -4 -10 -10 -10 -5 0 -10 5 -10 10 0 6 5 10 10 10 6 0 10 -4 10 -10z m-342
-33 c5 -23 -10 -21 -26 4 -12 18 -11 20 5 17 10 -2 19 -11 21 -21z m2020 -29
c17 -17 15 -57 -3 -64 -24 -9 -65 5 -65 22 0 44 41 69 68 42z m895 -48 c65
-50 79 -76 57 -115 -18 -32 -49 -38 -117 -21 -49 11 -55 -10 -42 -141 7 -59
13 -110 15 -112 2 -2 11 2 19 9 13 11 18 10 30 -6 28 -37 9 -95 -24 -74 -8 4
-21 6 -29 2 -8 -3 -21 3 -30 14 -8 10 -16 15 -18 9 -17 -41 -54 -45 -54 -5 0
24 -20 27 -21 3 -1 -10 -5 6 -10 36 -6 33 -6 72 0 100 18 84 38 157 51 180 6
13 13 49 15 82 3 32 10 66 17 73 21 24 85 8 141 -34z m-438 -48 c6 -4 21 -22
34 -39 29 -42 25 -89 -9 -115 -22 -16 -30 -17 -60 -7 -52 18 -60 27 -60 71 0
32 6 46 31 69 32 30 46 34 64 21z m-1902 -22 c3 -11 1 -20 -4 -20 -5 0 -9 2
-9 4 0 2 -3 11 -6 20 -3 9 -2 16 4 16 5 0 12 -9 15 -20z m-1073 -44 c5 -13 14
-26 21 -28 19 -6 15 -66 -6 -82 -10 -7 -20 -21 -21 -31 -1 -10 -8 -30 -14 -44
-15 -38 -64 -32 -82 10 -7 16 -16 29 -19 29 -4 0 -12 21 -18 47 -17 66 -2 97
52 111 66 15 77 14 87 -12z m441 7 c19 -11 29 -26 29 -40 0 -20 -4 -23 -27
-17 -41 10 -43 12 -43 45 0 34 2 35 41 12z m4529 -23 c0 -5 -9 -10 -20 -10
-11 0 -20 5 -20 10 0 6 9 10 20 10 11 0 20 -4 20 -10z m-5257 -52 c-9 -48 -21
-58 -69 -58 -64 0 -60 28 8 63 29 15 56 27 60 27 4 0 5 -15 1 -32z m897 -36
c0 -15 -22 -30 -36 -25 -24 9 -16 33 11 33 14 0 25 -4 25 -8z m1265 -2 c3 -5
17 -10 31 -10 13 0 24 -3 24 -7 0 -5 3 -17 6 -29 4 -15 -1 -23 -19 -31 -21
-10 -28 -8 -46 11 -12 12 -21 34 -21 49 0 27 13 36 25 17z m-1097 -63 c23 -21
28 -42 14 -51 -17 -10 -59 9 -103 47 l-44 38 55 -6 c34 -5 63 -15 78 -28z
m-613 -1 c19 23 26 26 36 17 10 -10 10 -21 0 -54 -14 -47 -8 -145 14 -251 4
-14 2 -29 -3 -32 -6 -3 -8 -15 -5 -26 7 -27 -32 -70 -63 -70 -13 0 -35 5 -51
11 -15 6 -43 12 -62 12 -32 2 -35 5 -39 36 -4 35 27 81 55 81 10 0 11 5 3 19
-8 15 -7 22 5 29 9 4 16 19 16 33 2 60 24 176 38 198 l15 24 9 -28 9 -27 23
28z m3299 -28 c8 -32 8 -35 -7 -50 -7 -7 -18 -26 -26 -43 -12 -28 -14 -28 -22
-10 -13 34 -10 88 8 107 22 24 39 23 47 -4z m-4004 -35 c0 -13 -9 -14 -47 -8
-26 4 -56 13 -66 20 -18 13 -16 14 19 17 50 4 94 -10 94 -29z m400 8 c0 -11
-42 -43 -48 -37 -2 3 1 14 8 25 11 21 40 29 40 12z m796 -22 c9 -14 -17 -61
-36 -66 -11 -3 -17 -9 -14 -14 8 -14 -30 -10 -52 5 -16 12 -24 12 -44 1 -14
-7 -24 -16 -22 -19 12 -29 -6 -32 -54 -10 -59 28 -55 77 9 87 18 3 50 10 72
15 45 11 134 11 141 1z m1003 -3 c7 -8 11 -27 9 -43 -2 -23 -7 -27 -27 -25
-19 3 -22 0 -17 -13 3 -9 6 -30 6 -46 0 -17 4 -28 9 -25 5 3 19 -3 32 -13 20
-16 22 -22 12 -44 -13 -28 -53 -39 -77 -22 -13 10 -14 18 -6 39 5 15 10 62 10
105 0 90 19 123 49 87z m467 -40 c5 -12 40 -28 69 -30 6 -1 11 -13 13 -28 2
-16 8 -28 13 -28 5 0 9 -8 9 -19 0 -10 11 -26 25 -35 14 -9 24 -20 22 -24 -1
-5 7 -25 18 -45 l19 -36 -23 -41 c-12 -22 -20 -44 -16 -49 7 -12 -37 -43 -89
-65 -79 -33 -195 -10 -246 47 -126 144 -126 144 -110 213 15 60 23 66 130 93
42 11 91 28 110 39 43 25 49 26 56 8z m-1607 -88 c12 -15 11 -18 -3 -18 -10 0
-16 8 -16 22 0 12 1 19 3 17 1 -2 9 -12 16 -21z m711 -49 c0 -5 -4 -9 -10 -9
-5 0 -10 7 -10 16 0 8 5 12 10 9 6 -3 10 -10 10 -16z m3608 -18 c13 -7 30 -10
37 -7 8 3 17 1 20 -3 2 -5 17 -12 32 -16 61 -15 125 -112 108 -164 -5 -17 -79
-41 -126 -41 -10 0 -19 -6 -19 -14 0 -7 -11 -21 -25 -30 -28 -18 -39 -21 -30
-6 3 5 1 10 -5 10 -6 0 -13 -7 -16 -15 -3 -8 -14 -17 -24 -20 -11 -3 -22 -14
-25 -24 -3 -9 -30 -28 -61 -41 -70 -29 -158 -24 -231 11 l-48 24 0 77 c0 42
-3 80 -7 84 -12 11 24 64 44 64 9 0 22 9 28 20 6 11 17 20 25 20 8 0 15 4 15
10 0 21 78 59 127 62 26 1 56 7 66 14 20 13 78 5 115 -15z m-3638 -17 c0 -14
-12 -19 -23 -8 -9 9 4 35 14 28 5 -3 9 -12 9 -20z m-1464 -20 c-3 -9 -6 -20
-6 -25 0 -5 -4 -9 -10 -9 -11 0 -14 33 -3 43 12 13 25 7 19 -9z m1650 -42
c-12 -11 -18 7 -10 30 l8 23 4 -23 c2 -13 1 -26 -2 -30z m48 6 c-4 -12 0 -18
12 -18 9 0 27 -11 40 -25 27 -29 40 -65 24 -65 -7 0 -14 9 -17 20 -3 11 -9 20
-14 20 -13 0 -20 -18 -10 -25 6 -3 8 -12 5 -20 -4 -10 0 -12 15 -8 19 5 21 1
21 -35 0 -82 -44 -129 -46 -50 -2 59 -13 89 -32 86 -11 -2 -16 3 -15 16 1 12
-2 15 -9 8 -6 -6 -13 -34 -15 -63 -2 -29 -8 -59 -12 -67 -5 -9 -6 16 -3 56 3
50 1 72 -7 72 -6 0 -11 4 -11 10 0 5 6 7 14 4 13 -5 29 18 31 46 0 8 4 30 9
49 6 25 11 30 17 20 5 -8 6 -22 3 -31z m-204 15 c2 -2 -2 -8 -10 -13 -10 -6
-20 -4 -31 6 -8 8 -19 11 -22 7 -4 -3 -7 -1 -7 5 0 11 57 6 70 -5z m254 -19
c4 -10 1 -14 -6 -12 -15 5 -23 28 -10 28 5 0 13 -7 16 -16z m1205 -28 c36 -8
68 -13 73 -10 4 3 8 -2 8 -11 0 -8 8 -18 18 -22 9 -3 29 -19 43 -35 14 -15 35
-28 46 -28 11 0 26 -7 33 -15 6 -8 15 -14 18 -13 4 1 32 -10 63 -25 l55 -27
-6 -49 c-3 -27 -13 -56 -22 -65 -21 -20 -62 -21 -82 -1 -8 8 -18 15 -21 15 -4
0 -18 9 -32 19 -13 11 -31 17 -39 14 -17 -6 -71 14 -99 37 -11 10 -31 20 -45
23 -17 5 -30 19 -42 47 -12 29 -22 40 -38 40 -12 0 -19 4 -16 9 3 4 -6 19 -19
31 -14 13 -25 28 -25 35 0 22 32 56 48 51 10 -3 46 -12 81 -20z m-1449 10 c0
-3 -4 -8 -10 -11 -5 -3 -10 -1 -10 4 0 6 5 11 10 11 6 0 10 -2 10 -4z m-994
-132 c12 -67 -21 -82 -51 -21 -19 39 -19 54 2 66 24 13 41 -3 49 -45z m-1011
-40 c16 -25 16 -29 1 -61 -20 -43 -35 -48 -80 -29 -32 13 -36 19 -36 50 0 64
81 92 115 40z m2242 -96 c-3 -8 -6 -5 -6 6 -1 11 2 17 5 13 3 -3 4 -12 1 -19z
m13 -38 c0 -5 -4 -10 -10 -10 -5 0 -10 5 -10 10 0 6 5 10 10 10 6 0 10 -4 10
-10z"/>
<path d="M5482 10738 c3 -7 13 -15 22 -16 12 -3 17 1 14 10 -3 7 -13 15 -22
16 -12 3 -17 -1 -14 -10z"/>
<path d="M4317 10043 c-4 -3 -7 -13 -7 -22 1 -13 3 -13 11 2 11 19 8 33 -4 20z"/>
<path d="M4290 9720 c0 -10 26 -20 34 -13 11 12 6 19 -14 20 -11 1 -20 -2 -20
-7z"/>
<path d="M4262 8656 c-23 -48 -69 -92 -120 -113 -30 -12 -32 -17 -27 -46 8
-41 -7 -81 -44 -115 -51 -48 -244 -384 -234 -409 3 -7 17 -16 32 -20 40 -9 94
-38 115 -62 11 -12 27 -21 37 -21 13 0 20 -10 24 -35 3 -19 7 -51 10 -70 3
-19 10 -35 14 -35 10 0 21 49 21 93 0 17 8 39 17 49 17 19 16 19 -10 13 -40
-10 -48 20 -14 48 39 32 57 95 57 199 0 88 0 89 29 106 19 11 31 27 34 47 3
16 17 73 32 125 15 52 28 109 29 125 0 17 6 39 12 50 14 24 25 115 14 115 -4
0 -17 -20 -28 -44z"/>
<path d="M4343 8322 c-3 -9 -13 -25 -20 -34 -16 -19 -10 -38 13 -38 20 0 18
-17 -10 -77 -20 -42 -25 -70 -27 -154 -2 -67 1 -104 8 -106 6 -2 14 13 18 34
8 44 37 104 60 123 9 7 36 40 60 72 56 72 66 121 35 161 -23 29 -57 36 -66 14
-6 -17 -34 -18 -34 -1 0 20 -30 25 -37 6z"/>
<path d="M4272 7888 c-18 -18 -15 -25 14 -32 33 -9 39 -3 24 23 -12 24 -21 26
-38 9z"/>
<path d="M4020 7770 c0 -5 5 -10 10 -10 6 0 10 5 10 10 0 6 -4 10 -10 10 -5 0
-10 -4 -10 -10z"/>
<path d="M3548 7220 c-29 -39 -38 -95 -16 -88 22 8 49 66 46 97 l-3 30 -27
-39z"/>
<path d="M5064 7054 c-15 -35 -14 -43 5 -74 5 -8 12 -23 15 -32 7 -23 30 -23
51 -1 31 30 -1 143 -41 143 -8 0 -22 -16 -30 -36z"/>
<path d="M4109 7058 c-9 -7 -19 -25 -23 -40 -5 -23 -3 -25 16 -20 17 4 20 2
15 -11 -4 -10 -2 -17 4 -17 17 0 49 20 49 31 0 6 -7 3 -16 -6 -19 -19 -32 -12
-15 9 9 11 9 15 -1 19 -8 3 -6 6 5 6 12 1 17 7 15 18 -4 22 -29 27 -49 11z"/>
<path d="M2907 8393 c-4 -3 -7 -17 -7 -30 0 -31 42 -31 72 -1 l22 22 -24 7
c-34 10 -55 10 -63 2z"/>
<path d="M6422 7974 c4 -21 22 -23 26 -1 2 10 -3 17 -13 17 -10 0 -15 -6 -13
-16z"/>
<path d="M2425 6501 c-6 -11 9 -23 19 -14 9 9 7 23 -3 23 -6 0 -12 -4 -16 -9z"/>
<path d="M2465 6490 c4 -6 11 -8 16 -5 14 9 11 15 -7 15 -8 0 -12 -5 -9 -10z"/>
<path d="M2145 6321 c-3 -6 1 -13 8 -18 7 -4 16 -16 20 -26 9 -25 36 -32 55
-14 14 15 14 17 -9 26 -13 5 -19 10 -12 10 7 1 10 8 7 16 -7 16 -59 21 -69 6z"/>
<path d="M1651 7303 c0 -7 -13 -18 -28 -25 -35 -17 -51 -44 -36 -59 24 -24 80
37 70 77 -3 11 -5 14 -6 7z"/>
<path d="M3324 6745 c-16 -12 -17 -14 -3 -15 9 0 19 7 23 15 7 19 5 19 -20 0z"/>
<path d="M4140 6570 c0 -5 5 -10 10 -10 6 0 10 5 10 10 0 6 -4 10 -10 10 -5 0
-10 -4 -10 -10z"/>
<path d="M3340 5689 c0 -5 5 -7 10 -4 6 3 10 8 10 11 0 2 -4 4 -10 4 -5 0 -10
-5 -10 -11z"/>
<path d="M3577 5485 c-4 -8 -2 -17 2 -20 5 -2 11 4 14 15 6 23 -8 27 -16 5z"/>
<path d="M3545 5407 c-4 -10 -5 -21 -1 -24 10 -10 18 4 13 24 -4 17 -4 17 -12
0z"/>
<path d="M3366 5272 c-2 -4 4 -8 15 -8 10 0 19 4 19 8 0 4 -6 8 -14 8 -8 0
-17 -4 -20 -8z"/>
<path d="M3110 5245 c0 -15 31 -63 44 -68 20 -8 28 19 11 35 -42 38 -55 45
-55 33z"/>
<path d="M3060 4390 c0 -5 5 -10 10 -10 6 0 10 5 10 10 0 6 -4 10 -10 10 -5 0
-10 -4 -10 -10z"/>
<path d="M2670 3238 c-7 -14 -21 -29 -31 -31 -20 -5 -27 -27 -9 -27 6 0 27 7
47 15 26 11 33 18 26 28 -6 6 -13 19 -15 27 -4 11 -9 8 -18 -12z"/>
<path d="M6190 4803 c0 -5 4 -14 9 -22 8 -12 12 -12 25 -2 9 7 13 17 10 22 -6
11 -44 12 -44 2z"/>
<path d="M1219 3724 c-12 -14 -11 -16 5 -13 11 2 21 10 24 17 5 17 -13 15 -29
-4z"/>
<path d="M730 3078 c0 -18 12 -33 33 -41 23 -9 22 15 -1 36 -22 20 -32 21 -32
5z"/>
<path d="M2242 658 c-16 -16 -15 -48 2 -48 7 0 16 11 18 25 6 29 -4 39 -20 23z"/>
<path d="M2211 554 c-14 -54 -10 -61 24 -46 28 13 33 46 11 75 -19 25 -22 22
-35 -29z"/>
<path d="M2205 470 c-3 -5 1 -10 9 -10 8 0 18 5 21 10 3 6 -1 10 -9 10 -8 0
-18 -4 -21 -10z"/>
<path d="M1246 11021 c77 -71 138 -120 145 -115 11 6 3 46 -18 92 -15 31 -17
32 -76 32 -36 0 -57 -4 -51 -9z"/>
<path d="M1431 11013 c7 -10 26 -30 42 -46 25 -24 28 -32 22 -66 -7 -44 5 -75
57 -138 18 -23 53 -66 77 -97 62 -79 92 -74 159 24 17 25 56 70 87 100 32 30
75 78 97 105 22 28 55 67 74 87 19 20 34 40 34 43 0 3 -149 5 -331 5 -314 0
-331 -1 -318 -17z"/>
<path d="M7316 11015 c25 -19 44 -19 44 0 0 10 -10 15 -32 15 -30 0 -31 -1
-12 -15z"/>
<path d="M3925 10857 c-4 -10 -5 -21 -1 -24 10 -10 18 4 13 24 -4 17 -4 17
-12 0z"/>
<path d="M306 10658 c-47 -46 -123 -114 -168 -153 -130 -111 -138 -121 -138
-171 0 -24 4 -44 9 -44 4 0 24 12 44 28 20 15 55 41 78 57 106 76 164 129 195
178 18 28 34 55 34 60 0 4 9 26 19 50 45 102 37 101 -73 -5z"/>
<path d="M480 10600 c0 -5 5 -10 10 -10 6 0 10 5 10 10 0 6 -4 10 -10 10 -5 0
-10 -4 -10 -10z"/>
<path d="M7351 4123 c-1 -15 -6 -21 -15 -17 -8 3 -23 -5 -35 -17 -24 -26 -21
-53 17 -117 18 -32 27 -40 33 -30 12 18 11 105 0 113 -6 3 -6 17 1 35 5 16 8
35 5 42 -3 7 -6 3 -6 -9z"/>
<path d="M520 1703 c-19 -6 -45 -12 -57 -12 -12 -1 -25 -5 -28 -11 -3 -5 -22
-7 -43 -3 -68 12 -157 9 -155 -4 2 -7 -3 -13 -10 -13 -8 0 -21 -8 -31 -19 -13
-14 -26 -17 -65 -13 -43 4 -53 1 -76 -22 -14 -14 -30 -26 -35 -26 -12 0 -23
-37 -15 -51 4 -6 13 -8 19 -6 7 3 19 1 27 -3 7 -5 18 -5 25 1 8 7 14 6 19 -1
8 -12 95 -12 153 0 102 24 120 29 177 57 51 25 126 49 145 45 3 0 17 -3 30 -6
42 -10 54 5 37 45 -18 44 -65 61 -117 42z"/>
<path d="M560 1525 c0 -8 7 -15 15 -15 9 0 12 6 9 15 -4 8 -10 15 -15 15 -5 0
-9 -7 -9 -15z"/>
<path d="M605 1070 c-9 -28 11 -52 25 -30 6 8 9 21 7 29 -4 23 -25 24 -32 1z"/>
</g>
</svg>
